<svg width="239" height="275" viewBox="0 0 239 275" fill="none" xmlns="http://www.w3.org/2000/svg">
<path d="M104 173C95.667 169.667 77.9003 167.1 73.5003 183.5C66.3336 174.167 49.0003 159.9 37.0003 177.5C34.8336 194 38.7003 224.4 71.5003 214C71.1669 216.167 69.8002 220.8 67.0002 222C73.1669 233.167 91.7002 256.8 116.5 262C112.667 258.167 104.5 248.9 102.5 242.5C111 249.667 130.6 264.4 141 266C149.5 267.333 170.4 265.4 186 247C187.334 246.333 188.5 247.7 182.5 258.5C199.834 252.167 233.4 229.6 229 190C224.167 193 213.6 199.2 210 200C211.5 201.5 215.3 204.2 218.5 203C221.7 201.8 219.834 203.167 218.5 204C218.167 205 216 207.2 210 208C207.334 211 200.8 217.1 196 217.5C191.334 232.667 173 261.4 137 255C135.5 255 94.0002 240 92.5002 193.5C92.8336 191 91.5002 188.8 83.5002 200C82.6669 198 83.3002 191.9 92.5002 183.5C96.4579 183.342 104.445 184.296 106.265 189.191C106.374 189.462 106.451 189.738 106.5 190C106.44 189.719 106.361 189.45 106.265 189.191C105.543 187.396 103.435 185.829 99.0002 190C104.334 195.333 122.3 207.6 151.5 214C166.667 215.833 198.8 215.9 206 201.5C198.834 202.667 183.5 202.4 179.5 192C192.334 196.5 220.6 198.5 231 170.5C230.5 164.667 219.5 157.3 179.5 174.5C181.5 173.333 186.1 170.5 188.5 168.5C182.5 154.167 174.6 123.9 191 117.5C192 118 200.5 110.5 208.5 119C208.167 113.667 204.2 103 191 103C187 102.833 178.2 106.2 175 121C174.5 118.5 173.8 111.4 175 103C171.667 103 165.6 107.8 168 127C162.5 118 146.6 100.6 127 103C122.334 104 111.2 111.6 104 134C103.167 129.833 102.5 119.4 106.5 111C91.8336 115.333 70.8003 133.8 104 173Z" fill="white"/>
<path d="M127.871 102.404C137.469 101.523 146.133 105.265 153.082 110.321C159.362 114.89 164.277 120.557 167.269 124.95C166.44 116.514 167.334 111.033 168.895 107.594C170.584 103.869 173.084 102.5 175 102.5H175.577L175.495 103.071C174.589 109.415 174.776 115.007 175.133 118.397C178.774 105.523 186.954 102.344 191 102.501V102.5C197.755 102.5 202.189 105.238 204.965 108.686C207.724 112.114 208.827 116.218 208.999 118.969L209.086 120.351L208.136 119.343C206.194 117.28 204.244 116.208 202.406 115.734C200.565 115.259 198.805 115.375 197.237 115.737C195.666 116.1 194.299 116.706 193.244 117.203C192.727 117.446 192.26 117.675 191.9 117.822C191.72 117.896 191.541 117.96 191.378 117.995C191.293 118.013 191.175 118.031 191.046 118.02C187.182 119.574 184.731 122.518 183.315 126.327C181.878 130.196 181.514 134.949 181.85 139.992C182.52 150.077 185.974 161.171 188.962 168.307L189.104 168.647L188.82 168.885C187.788 169.745 186.358 170.751 184.903 171.716C201.76 164.976 212.928 162.977 220.09 163.363C228.012 163.79 231.217 167.176 231.498 170.458L231.508 170.569L231.469 170.675C226.206 184.844 216.397 191.451 206.281 193.924C196.735 196.257 186.929 194.909 180.409 192.83C182.534 197.154 186.882 199.481 191.677 200.6C196.827 201.803 202.384 201.582 205.92 201.007L206.885 200.849L206.447 201.723C204.579 205.46 201.112 208.221 196.791 210.239C192.469 212.257 187.25 213.552 181.809 214.333C170.925 215.895 159.054 215.417 151.44 214.497L151.417 214.494L151.394 214.488C122.118 208.072 104.059 195.766 98.6465 190.353L98.2822 189.989L98.6572 189.636C100.822 187.599 102.547 186.808 103.912 186.853C102.86 186.008 101.513 185.379 100.038 184.928C97.4664 184.143 94.6361 183.937 92.7002 183.996C88.2275 188.107 85.8547 191.631 84.6972 194.346C83.8691 196.29 83.6734 197.793 83.749 198.802C85.452 196.467 86.8383 194.768 87.9629 193.566C89.2162 192.227 90.184 191.463 90.9336 191.151C91.3138 190.993 91.6898 190.93 92.0371 191.022C92.4007 191.119 92.6494 191.365 92.8017 191.652C93.0753 192.168 93.0804 192.886 93.001 193.518C93.7551 216.584 104.418 231.827 115.083 241.314C120.421 246.063 125.759 249.369 129.854 251.486C131.902 252.545 133.637 253.304 134.901 253.799C135.534 254.046 136.046 254.227 136.419 254.344C136.606 254.402 136.755 254.443 136.863 254.469C136.988 254.5 137.02 254.5 137 254.5H137.044L137.088 254.508C154.925 257.679 168.359 252.15 177.925 243.958C187.507 235.751 193.212 224.863 195.522 217.353L195.622 217.03L195.959 217.002C198.205 216.814 200.94 215.27 203.498 213.327C206.035 211.4 208.311 209.148 209.627 207.668L209.75 207.529L209.935 207.505C212.885 207.111 214.86 206.377 216.124 205.642C217.406 204.897 217.914 204.178 218.026 203.842L218.083 203.672L218.147 203.631C216.524 204.045 214.838 203.632 213.402 202.967C211.803 202.225 210.43 201.137 209.646 200.353L209.003 199.71L209.892 199.512C210.732 199.326 212.024 198.81 213.595 198.07C215.154 197.335 216.955 196.396 218.798 195.386C222.484 193.367 226.325 191.071 228.736 189.575L229.41 189.157L229.497 189.945C231.716 209.912 224.356 225.589 214.275 237.055C204.204 248.511 191.405 255.779 182.672 258.969L181.411 259.43L182.063 258.258C185.064 252.857 186.232 249.88 186.508 248.361C186.576 247.987 186.585 247.727 186.564 247.556C186.55 247.437 186.524 247.382 186.512 247.361C186.488 247.358 186.427 247.358 186.307 247.409C170.579 265.888 149.544 267.846 140.923 266.494V266.493C138.246 266.081 135.016 264.834 131.568 263.108C128.112 261.378 124.404 259.152 120.763 256.756C114.264 252.479 107.958 247.647 103.647 244.103C104.861 246.845 106.943 249.966 109.209 252.907C111.965 256.484 114.95 259.743 116.853 261.646L118.041 262.834L116.397 262.489C103.877 259.864 92.9636 252.593 84.4209 244.602C75.8771 236.611 69.6701 227.869 66.5625 222.242L66.2959 221.759L66.8037 221.541C68.029 221.016 69.0029 219.7 69.7217 218.152C70.2705 216.97 70.6407 215.714 70.8554 214.721C62.966 217.099 56.7166 217.113 51.8095 215.479C46.7311 213.788 43.1512 210.354 40.7041 206.087C35.8287 197.586 35.4157 185.73 36.5049 177.435L36.5205 177.317L36.5869 177.219C39.6377 172.744 43.0602 170.25 46.6191 169.219C50.1738 168.19 53.8032 168.639 57.2392 169.932C63.7234 172.374 69.6175 177.861 73.292 182.428C74.45 178.726 76.3199 176.014 78.6299 174.088C81.1278 172.005 84.1109 170.863 87.1943 170.356C92.5465 169.477 98.2531 170.5 102.425 171.892C86.8235 152.959 83.8831 138.828 86.8203 128.785C89.8269 118.504 98.9313 112.715 106.358 110.52L107.434 110.203L106.952 111.215C103.554 118.35 103.577 127.011 104.176 131.891C107.686 121.708 112.012 114.74 116.076 110.144C120.385 105.272 124.422 103.042 126.895 102.511L126.917 102.507L126.939 102.504L127.871 102.404ZM152.493 111.13C145.447 106.003 136.706 102.323 127.084 103.494C124.887 103.973 121.036 106.044 116.825 110.806C112.611 115.572 108.059 123.008 104.477 134.153L103.888 135.985L103.51 134.098C102.699 130.046 102.04 120.153 105.588 111.814C98.575 114.17 90.5186 119.702 87.7803 129.065C84.9078 138.887 87.8275 153.13 104.382 172.677L103.814 173.465C99.7005 171.819 93.2711 170.371 87.3564 171.344C84.4065 171.828 81.6017 172.912 79.2705 174.856C76.943 176.797 75.0594 179.619 73.9834 183.63L73.7207 184.608L73.1035 183.804C69.548 179.174 63.4927 173.355 56.8867 170.868C53.5937 169.628 50.1916 169.227 46.8974 170.18C43.6325 171.126 40.4116 173.42 37.4804 177.682C36.4225 185.88 36.8776 197.404 41.5713 205.589C43.9199 209.684 47.3215 212.93 52.125 214.53C56.9364 216.132 63.2159 216.102 71.3496 213.523L72.1172 213.28L71.9941 214.076C71.8216 215.197 71.3854 216.944 70.6289 218.573C69.9621 220.009 69.0063 221.435 67.6914 222.206C70.8283 227.757 76.8655 236.167 85.1045 243.873C93.1903 251.436 103.365 258.29 114.961 261.134C113.099 259.18 110.682 256.456 108.417 253.517C105.642 249.916 103.052 245.94 102.023 242.649L101.512 241.012L102.822 242.118C107.06 245.691 114.07 251.153 121.312 255.92C124.934 258.303 128.607 260.507 132.017 262.214C135.22 263.817 138.162 264.966 140.597 265.424L141.076 265.506L141.078 265.507L141.897 265.619C150.733 266.683 170.638 264.347 185.619 246.677L185.686 246.598L185.776 246.553C186.139 246.371 186.759 246.19 187.213 246.643C187.422 246.852 187.522 247.137 187.558 247.439C187.593 247.743 187.57 248.109 187.492 248.539C187.208 250.108 186.12 252.878 183.591 257.55C192.134 254.189 204.056 247.165 213.524 236.395C223.327 225.246 230.49 210.099 228.584 190.84C226.156 192.332 222.655 194.413 219.278 196.263C217.426 197.278 215.607 198.228 214.021 198.974C212.883 199.511 211.846 199.95 210.996 200.234C211.726 200.852 212.72 201.548 213.823 202.059C215.306 202.746 216.905 203.064 218.324 202.532C219.118 202.234 219.658 202.071 219.983 202.036C220.068 202.027 220.17 202.022 220.272 202.04C220.365 202.056 220.555 202.108 220.678 202.298C220.809 202.5 220.767 202.706 220.73 202.807C220.694 202.91 220.636 202.993 220.593 203.048C220.427 203.258 220.113 203.506 219.807 203.728C219.526 203.932 219.205 204.143 218.904 204.334C218.619 204.973 217.892 205.772 216.627 206.508C215.253 207.306 213.2 208.057 210.248 208.469C208.882 209.988 206.621 212.209 204.103 214.123C201.64 215.994 198.85 217.635 196.378 217.961C193.962 225.604 188.193 236.48 178.575 244.718C168.812 253.079 155.089 258.715 136.938 255.496C136.838 255.488 136.726 255.465 136.627 255.441C136.49 255.408 136.32 255.36 136.12 255.298C135.72 255.172 135.186 254.984 134.537 254.73C133.239 254.223 131.473 253.448 129.395 252.374C125.241 250.226 119.83 246.875 114.418 242.061C103.589 232.428 92.7563 216.932 92.001 193.516L91.999 193.475L92.0049 193.434C92.0857 192.828 92.0433 192.358 91.9179 192.121C91.8672 192.025 91.8206 191.999 91.7793 191.988C91.7217 191.973 91.5825 191.964 91.3174 192.074C90.7753 192.3 89.9296 192.929 88.6933 194.25C87.4694 195.557 85.9004 197.5 83.9072 200.291L83.3847 201.022L83.039 200.192C82.5498 199.018 82.5462 196.842 83.7773 193.954C85.0164 191.047 87.5248 187.366 92.1631 183.131L92.2978 183.008L92.4804 183.001C94.5003 182.92 97.5447 183.122 100.33 183.972C103.096 184.817 105.74 186.346 106.733 189.016L106.741 189.039C106.856 189.331 106.94 189.626 106.992 189.908L106.012 190.105C105.957 189.85 105.884 189.606 105.798 189.372C105.475 188.573 104.892 187.931 103.984 187.857C103.087 187.785 101.708 188.245 99.7285 190.01C105.416 195.444 123.128 207.264 151.584 213.506C159.138 214.417 170.904 214.887 181.667 213.343C187.054 212.569 192.167 211.295 196.368 209.333C200.215 207.536 203.262 205.18 205.079 202.137C201.454 202.611 196.292 202.705 191.449 201.575C186.147 200.337 181.119 197.603 179.033 192.179L178.645 191.171L179.666 191.528C186.015 193.754 196.189 195.361 206.044 192.952C215.844 190.556 225.343 184.189 230.489 170.434C230.208 167.902 227.629 164.771 220.036 164.362C212.339 163.947 199.674 166.37 179.698 174.96L179.248 174.068C181.172 172.946 185.467 170.298 187.896 168.344C184.918 161.138 181.521 150.127 180.852 140.058C180.512 134.943 180.873 130.033 182.379 125.979C183.891 121.91 186.562 118.695 190.818 117.034L191.025 116.954L191.156 117.018C191.16 117.018 191.165 117.018 191.17 117.017C191.245 117.001 191.359 116.963 191.521 116.896C191.849 116.762 192.273 116.554 192.818 116.298C193.888 115.794 195.334 115.15 197.013 114.762C198.694 114.374 200.622 114.241 202.656 114.765C204.359 115.205 206.112 116.102 207.844 117.66C207.45 115.185 206.364 112.019 204.186 109.313C201.595 106.095 197.445 103.5 191 103.5H190.979C187.267 103.345 178.648 106.497 175.489 121.106L174.51 121.098C174.011 118.606 173.332 111.737 174.419 103.554C173.029 103.805 171.18 104.977 169.806 108.007C168.226 111.488 167.302 117.383 168.496 126.938L167.573 127.261C164.853 122.809 159.545 116.261 152.493 111.13Z" fill="#1E1E1E"/>
<path d="M158.731 92.4207L148.731 64.4397C147.731 64.9397 144.831 65.6397 141.231 64.4397C137.231 68.773 124.031 76.6397 103.231 73.4397C100.065 78.273 88.9313 88.0397 69.7313 88.4397C68.7314 90.1064 65.0314 94.4397 58.2314 98.4397L69.7313 126.134C95.7688 100.74 134.582 90.535 158.731 92.4207Z" fill="white"/>
<path d="M158.731 92.4207C134.582 90.535 95.7688 100.74 69.7313 126.134C68.0059 127.817 66.3366 129.566 64.7314 131.384C56.8938 140.256 50.584 150.739 46.7313 162.94C39.2313 164.606 26.0313 170.54 31.2313 196.94C33.2313 204.44 42.8313 224.34 59.2313 223.94C68.7313 241.273 99.1313 275.64 144.731 274.44C162.065 274.273 201.931 266.34 222.731 235.94C229.565 227.94 241.531 206.14 234.731 182.94C238.565 176.273 241.531 161.54 222.731 155.94C221.231 141.273 213.731 112.44 195.731 114.44C173.231 116.94 181.731 157.94 187.731 168.44C181.231 171.773 172.131 177.34 187.731 172.94L214.731 163.94C221.898 162.94 234.731 164.24 228.731 177.44C228.731 178.44 212.731 201.94 180.731 191.94C179.731 191.94 178.731 193.04 182.731 197.44C184.898 199.44 192.531 202.84 205.731 200.44C207.065 201.773 207.231 205.54 197.231 209.94C188.731 213.273 167.531 218.64 150.731 213.44C140.065 211.773 114.731 204.64 98.7313 189.44C99.5646 188.606 102.331 187.44 106.731 189.44C107.565 188.44 107.531 186.04 100.731 184.44C92.2313 182.44 83.2313 185.44 83.2313 200.44C83.2313 200.773 84.0313 200.24 87.2313 195.44C88.5646 194.106 91.4313 191.54 92.2313 191.94C92.4781 192.063 92.664 193.527 92.9619 195.872C93.8709 203.028 95.8228 218.395 103.731 228.94C108.398 235.94 121.231 250.64 135.231 253.44C141.065 254.94 155.831 256.64 168.231 251.44C174.731 248.606 189.331 237.84 195.731 217.44C199.398 215.773 207.431 211.44 210.231 207.44C212.065 207.44 216.131 206.94 217.731 204.94C218.065 204.44 218.531 203.44 217.731 203.44C216.731 203.44 208.731 201.44 209.731 199.94C215.065 197.773 226.431 192.44 229.231 188.44C232.731 203.44 227.931 238.74 180.731 259.94C182.065 257.773 185.131 252.14 186.731 246.94C175.065 262.273 141.931 282.84 102.731 242.44C104.398 247.106 110.031 257.84 119.231 263.44C107.565 261.106 80.6313 249.54 66.2313 221.94C68.2313 220.273 72.0313 216.44 71.2313 214.44C61.398 219.106 40.5313 220.34 35.7313 187.94C34.7313 180.44 37.2313 169.94 49.2313 168.94C53.2313 168.606 64.2595 170.04 72.7313 182.44C74.5646 175.773 83.1313 164.44 102.731 172.44C89.2313 156.773 71.1313 122.24 106.731 109.44C105.065 114.94 102.431 127.44 105.231 133.44C107.565 124.44 115.231 105.84 127.231 103.44C142.231 100.44 161.231 115.44 167.731 126.94C167.398 119.273 168.531 103.64 175.731 102.44C174.565 105.94 172.731 114.24 174.731 119.44C179.731 106.773 193.631 88.6397 209.231 117.44C210.065 110.106 207.731 94.9397 191.731 92.9397C188.731 92.6063 181.831 93.4396 178.231 99.4396C175.779 96.6898 171.614 94.6912 166.231 93.4996C163.939 92.9922 161.427 92.6311 158.731 92.4207Z" fill="black"/>
<path d="M148.731 64.4397L158.731 92.4207C161.427 92.6311 163.939 92.9922 166.231 93.4996L160.731 77.9397C185.131 77.9397 196.565 58.6064 199.231 48.9397C203.631 34.1397 195.398 19.4397 190.731 13.9397C168.331 -9.66034 137.065 3.10634 124.231 12.4397C81.0313 -6.36032 57.2313 22.273 50.7313 38.9397C24.3313 38.9397 9.39802 57.6063 5.23137 66.9397C-6.36863 87.3397 6.0647 105.44 13.7314 111.94C28.9314 125.14 49.7314 120.106 58.2314 115.94L64.7314 131.384C66.3366 129.566 68.0059 127.817 69.7313 126.134L58.2314 98.4397C65.0314 94.4397 68.7314 90.1064 69.7313 88.4397C88.9313 88.0397 100.065 78.273 103.231 73.4397C124.031 76.6397 137.231 68.773 141.231 64.4397C144.831 65.6397 147.731 64.9397 148.731 64.4397Z" fill="black"/>
<path d="M153.836 0.34277C165.987 -1.05745 179.34 1.57473 190.561 13.043L191.094 13.5957L191.104 13.6055L191.113 13.6162C193.485 16.4123 196.742 21.5177 198.855 27.793C200.967 34.0677 201.946 41.5476 199.712 49.0713L199.713 49.0723C197.041 58.7597 185.667 78.0633 161.435 78.4307L166.611 93.0742C171.605 94.2135 175.607 96.0635 178.153 98.6279C181.853 93.0781 188.349 92.1648 191.485 92.4141L191.786 92.4424L191.793 92.4434L192.55 92.5488C200.268 93.7419 204.774 98.0319 207.241 102.966C209.774 108.031 210.152 113.759 209.728 117.496L209.549 119.075L208.791 117.678C204.911 110.514 201.17 106.335 197.704 104.249C194.266 102.18 191.077 102.154 188.198 103.352C185.29 104.561 182.662 107.036 180.439 110.031C178.22 113.02 176.434 116.488 175.197 119.623L174.725 120.816L174.265 119.619C173.221 116.906 173.19 113.434 173.547 110.246C173.852 107.521 174.448 104.953 174.985 103.151C173.744 103.603 172.698 104.579 171.819 105.964C170.748 107.65 169.958 109.895 169.394 112.376C168.265 117.335 168.065 123.112 168.231 126.918L167.296 127.186C164.093 121.518 157.78 114.949 150.397 110.172C143.235 105.538 135.164 102.652 128.018 103.806L127.329 103.93C121.544 105.087 116.725 110.179 113.033 116.226C109.356 122.25 106.872 129.102 105.715 133.565L105.366 134.911L104.779 133.651C103.315 130.515 103.292 125.765 103.81 121.196C104.274 117.095 105.186 113.048 105.974 110.253C97.6985 113.401 92.5382 117.759 89.6204 122.733C86.5941 127.893 85.944 133.777 86.8137 139.793C88.5567 151.85 96.3881 164.313 103.11 172.113L102.542 172.902C92.8486 168.946 85.9701 169.8 81.3108 172.377C76.6301 174.966 74.1015 179.342 73.2131 182.572L72.927 183.613L72.3186 182.722C64.2244 170.874 53.7966 169.214 49.6536 169.413L49.2727 169.438C43.4402 169.924 39.9655 172.702 38.0461 176.24C36.1122 179.806 35.7367 184.188 36.2258 187.866L36.3401 188.614C38.8085 204.199 45.0665 211.616 51.7981 214.634C58.6688 217.714 66.1849 216.281 71.0168 213.988L71.4983 213.76L71.6955 214.254C71.967 214.932 71.8257 215.698 71.5315 216.411C71.2324 217.136 70.7394 217.896 70.176 218.621C69.1579 219.932 67.8542 221.199 66.8616 222.058C80.2088 247.326 104.139 258.964 116.689 262.325C108.704 256.396 103.804 246.929 102.26 242.607L103.09 242.092C122.605 262.204 140.538 267.077 154.989 265.095C169.469 263.108 180.56 254.225 186.333 246.637L187.209 247.087C185.863 251.461 183.496 256.124 181.965 258.825C226.587 238.131 231.927 204.699 228.957 189.562C228.206 190.374 227.198 191.207 226.043 192.027C224.479 193.139 222.61 194.259 220.671 195.316C216.924 197.36 212.883 199.184 210.197 200.287C210.273 200.389 210.426 200.531 210.688 200.698C211.261 201.064 212.153 201.439 213.144 201.779C214.126 202.117 215.174 202.409 216.036 202.617C216.467 202.721 216.848 202.804 217.15 202.859C217.465 202.917 217.658 202.939 217.732 202.939C218.035 202.94 218.353 203.041 218.539 203.339C218.702 203.6 218.685 203.894 218.648 204.094C218.571 204.506 218.327 204.948 218.148 205.217L218.135 205.235L218.121 205.252C217.217 206.382 215.669 207.042 214.195 207.424C212.829 207.778 211.442 207.914 210.487 207.935C208.99 209.954 206.303 212.001 203.574 213.736C200.837 215.478 197.999 216.943 196.14 217.8C189.657 238.217 175.025 249.024 168.431 251.898L168.425 251.9C155.89 257.157 141.007 255.439 135.114 253.925C127.996 252.495 121.215 248.06 115.65 243.14C110.085 238.219 105.69 232.773 103.331 229.239L102.96 228.736C95.7577 218.766 93.6243 204.861 92.6497 197.367L92.4661 195.935C92.3165 194.757 92.1966 193.818 92.0842 193.156C92.0278 192.824 91.9759 192.58 91.928 192.419C91.9276 192.418 91.9264 192.416 91.926 192.415C91.8285 192.439 91.6956 192.489 91.5276 192.575C91.1661 192.76 90.7192 193.063 90.2366 193.436C89.2915 194.164 88.2762 195.104 87.6174 195.761C86.0319 198.137 85.0271 199.48 84.4094 200.192C84.1082 200.54 83.8655 200.777 83.6711 200.898C83.6187 200.931 83.5518 200.966 83.4748 200.99C83.4016 201.013 83.2778 201.039 83.136 200.999C82.9737 200.953 82.8574 200.842 82.7942 200.716C82.7394 200.607 82.7317 200.502 82.7317 200.439C82.7317 192.845 85.0129 188.16 88.5022 185.658C91.9759 183.168 96.5182 182.935 100.846 183.953L101.47 184.106C104.5 184.888 106.173 185.857 106.982 186.849C107.423 187.39 107.612 187.946 107.602 188.472C107.591 188.991 107.386 189.435 107.115 189.76L106.871 190.053L106.525 189.895C102.901 188.247 100.533 188.861 99.5051 189.479C107.382 196.815 117.456 202.242 126.918 206.051C135.948 209.686 144.391 211.838 149.774 212.774L150.809 212.945L150.844 212.951L150.879 212.962C159.184 215.532 168.603 215.497 177.029 214.394C185.441 213.292 192.819 211.131 197.034 209.479C202.001 207.293 204.347 205.303 205.308 203.773C205.783 203.017 205.91 202.389 205.873 201.906C205.844 201.529 205.713 201.218 205.536 200.979C192.415 203.297 184.696 199.934 182.392 197.807L182.376 197.792L182.362 197.776C181.349 196.663 180.641 195.745 180.167 194.99C179.697 194.241 179.439 193.623 179.362 193.114C179.283 192.593 179.392 192.142 179.706 191.827C180.004 191.529 180.403 191.439 180.732 191.439H180.808L180.88 191.463C196.732 196.417 208.586 193.069 216.476 188.385C220.427 186.039 223.39 183.354 225.363 181.196C226.349 180.118 227.084 179.174 227.571 178.475C227.814 178.124 227.992 177.84 228.107 177.634C228.164 177.531 228.202 177.454 228.224 177.402C228.227 177.395 228.23 177.388 228.232 177.383V177.331L228.277 177.232C229.751 173.989 230.033 171.551 229.597 169.737C229.165 167.94 228.009 166.676 226.427 165.803C223.231 164.04 218.392 163.94 214.845 164.429L187.878 173.418L187.867 173.421C183.972 174.52 181.561 175.014 180.254 175.062C179.924 175.073 179.636 175.058 179.4 175.005C179.176 174.955 178.91 174.85 178.747 174.607C178.565 174.337 178.604 174.042 178.689 173.829C178.77 173.624 178.914 173.429 179.072 173.254C179.698 172.562 181.021 171.657 182.536 170.74C183.93 169.897 185.541 169.014 187.046 168.232C185.584 165.503 184.024 161.129 182.8 156.041C181.504 150.653 180.576 144.426 180.544 138.442C180.513 132.467 181.375 126.686 183.702 122.224C186.044 117.735 189.867 114.588 195.676 113.942C205.013 112.905 211.535 119.887 215.867 128.72C220.15 137.451 222.405 148.196 223.192 155.559C232.505 158.42 236.545 163.567 237.707 168.934C238.85 174.213 237.179 179.588 235.267 183C242.002 206.335 229.999 228.189 223.126 236.246C212.653 251.539 197.401 261.167 182.614 266.992C167.826 272.818 153.469 274.854 144.743 274.938L144.744 274.939C99.1096 276.14 68.6466 241.941 58.9397 224.443C50.6604 224.523 44.13 219.563 39.4416 213.715C34.6941 207.793 31.7644 200.879 30.7483 197.068L30.7444 197.053L30.7405 197.036C28.1245 183.755 30.1174 175.515 33.8127 170.373C37.4132 165.363 42.5604 163.395 46.342 162.517C50.1909 150.468 56.4247 140.092 64.1497 131.289L57.9729 116.613C53.6073 118.661 46.4489 120.826 38.5022 120.952C30.2519 121.083 21.1202 119.019 13.4036 112.317C9.51149 109.016 4.43004 102.793 1.78149 94.8096C-0.871883 86.8113 -1.08184 77.0459 4.78246 66.7168C8.99485 57.3007 23.9625 38.6014 50.3918 38.4424C53.7407 30.0579 61.3425 18.8282 73.4719 11.9551C85.7323 5.00795 102.562 2.54486 124.168 11.8691C130.67 7.19928 141.658 1.7463 153.836 0.34277ZM158.693 92.9189C135.05 91.0728 97.2111 100.892 71.3049 125.318L70.0803 126.492C68.5782 127.957 67.1192 129.473 65.7082 131.04L65.1057 131.715C57.3102 140.539 51.038 150.963 47.2082 163.09L47.1213 163.365L46.8401 163.428C43.1446 164.249 38.1097 166.108 34.6252 170.956C31.1475 175.795 29.14 183.717 31.718 196.823C32.705 200.516 35.5737 207.293 40.2209 213.09C44.8753 218.895 51.2426 223.634 59.219 223.439L59.5237 223.433L59.6702 223.699C69.1253 240.951 99.3837 275.132 144.718 273.939H144.727L145.55 273.926C154.225 273.727 168.033 271.662 182.248 266.062C196.921 260.281 211.992 250.75 222.319 235.657L222.334 235.636L222.351 235.615C229.128 227.681 240.985 206.053 234.251 183.08L234.192 182.875L234.298 182.69C236.176 179.425 237.824 174.202 236.73 169.146C235.646 164.14 231.848 159.177 222.588 156.419L222.268 156.323L222.234 155.99C221.487 148.693 219.248 137.881 214.97 129.16C210.677 120.409 204.45 113.974 195.786 114.937C190.346 115.541 186.795 118.457 184.589 122.687C182.369 126.943 181.513 132.538 181.544 138.438C181.575 144.329 182.49 150.477 183.772 155.808C185.056 161.146 186.699 165.625 188.165 168.191L188.425 168.646L187.959 168.885C186.341 169.715 184.564 170.682 183.054 171.596C181.523 172.522 180.327 173.358 179.815 173.925C179.774 173.97 179.744 174.011 179.717 174.046C179.834 174.062 179.998 174.069 180.218 174.062C181.243 174.024 183.133 173.668 186.205 172.842L187.596 172.458L214.573 163.466L214.616 163.451L214.662 163.444C218.278 162.94 223.412 162.997 226.91 164.927C228.682 165.904 230.057 167.376 230.569 169.504C231.073 171.603 230.715 174.259 229.212 177.588C229.193 177.674 229.164 177.748 229.145 177.793C229.104 177.888 229.048 177.999 228.981 178.12C228.845 178.363 228.648 178.677 228.392 179.046C227.878 179.784 227.114 180.762 226.1 181.871C224.072 184.089 221.035 186.84 216.987 189.244C208.891 194.051 196.774 197.45 180.67 192.443C180.536 192.453 180.453 192.494 180.413 192.534C180.384 192.563 180.305 192.661 180.351 192.965C180.399 193.281 180.578 193.764 181.014 194.458C181.443 195.142 182.104 196.005 183.08 197.081C185.107 198.941 192.557 202.326 205.642 199.947L205.9 199.901L206.085 200.086C206.498 200.499 206.814 201.095 206.87 201.829C206.927 202.565 206.721 203.404 206.155 204.306C205.033 206.092 202.462 208.184 197.433 210.397L197.423 210.401L197.414 210.405C193.127 212.087 185.662 214.272 177.158 215.386C168.67 216.497 159.105 216.546 150.618 213.928C145.243 213.084 136.224 210.875 126.544 206.979C116.845 203.074 106.449 197.461 98.387 189.802L98.0149 189.449L98.3782 189.086C99.3672 188.097 102.224 186.993 106.531 188.807C106.574 188.697 106.599 188.578 106.602 188.451C106.607 188.195 106.519 187.864 106.206 187.48C105.601 186.738 104.182 185.84 101.228 185.077L100.616 184.927C96.4443 183.945 92.2364 184.211 89.0852 186.471C86.0956 188.614 83.9407 192.637 83.7463 199.425C84.3355 198.728 85.3022 197.432 86.8157 195.162L86.843 195.121L86.8782 195.086C87.554 194.41 88.6205 193.419 89.6262 192.644C90.1268 192.258 90.6299 191.91 91.0725 191.685C91.293 191.572 91.5189 191.479 91.7346 191.432C91.9161 191.392 92.1423 191.373 92.3616 191.452L92.4553 191.492L92.5178 191.529C92.6551 191.62 92.7294 191.749 92.7649 191.817C92.815 191.914 92.8545 192.024 92.887 192.134C92.9526 192.355 93.0125 192.647 93.0705 192.989C93.1873 193.677 93.3099 194.641 93.4582 195.809L93.6418 197.246C94.619 204.746 96.7313 218.404 103.769 228.147L104.131 228.64L104.14 228.65L104.148 228.662C106.459 232.129 110.806 237.52 116.313 242.39C121.653 247.112 128.041 251.304 134.686 252.812L135.343 252.952L135.356 252.955C141.133 254.441 155.778 256.12 168.038 250.979C174.425 248.192 188.905 237.529 195.254 217.29L195.322 217.077L195.525 216.984C197.34 216.159 200.244 214.67 203.038 212.893C205.849 211.105 208.482 209.066 209.822 207.153L209.971 206.939H210.232C211.113 206.939 212.545 206.819 213.944 206.456C215.353 206.091 216.629 205.503 217.327 204.642C217.471 204.422 217.612 204.141 217.657 203.936C217.482 203.927 217.238 203.892 216.969 203.843C216.646 203.783 216.246 203.697 215.802 203.59C214.915 203.376 213.836 203.074 212.819 202.725C211.81 202.378 210.826 201.972 210.15 201.541C209.818 201.329 209.509 201.08 209.324 200.787C209.228 200.635 209.154 200.452 209.146 200.246C209.137 200.034 209.2 199.835 209.316 199.662L209.401 199.534L209.543 199.477C212.196 198.399 216.353 196.532 220.192 194.438C222.111 193.392 223.942 192.293 225.463 191.212C226.993 190.124 228.172 189.081 228.822 188.153L229.464 187.235L229.718 188.326C233.273 203.562 228.351 239.099 180.936 260.396L179.453 261.062L180.306 259.678C181.402 257.897 183.677 253.75 185.325 249.454C179.079 256.63 168.536 264.245 155.124 266.085C140.738 268.058 123.152 263.372 104.147 244.579C106.513 249.808 111.722 258.284 119.491 263.013L119.133 263.93C107.362 261.575 80.2767 249.94 65.7883 222.171L65.6018 221.813L65.9114 221.556C66.8933 220.737 68.3146 219.388 69.386 218.008C69.9226 217.317 70.3558 216.638 70.6067 216.03C70.7429 215.7 70.8141 215.414 70.8332 215.17C65.8196 217.377 58.3217 218.654 51.3889 215.546C44.1357 212.294 37.6519 204.316 35.2366 188.013L35.2356 188.006C34.7262 184.185 35.1025 179.571 37.1672 175.764C39.248 171.928 43.0226 168.955 49.1897 168.441L49.5989 168.415C53.9347 168.205 64.3221 169.899 72.5559 181.323C73.708 178.03 76.3253 173.992 80.8264 171.502C85.4989 168.917 92.1269 168.041 101.104 171.277C94.6276 163.362 87.4971 151.513 85.8235 139.937C84.9307 133.761 85.5875 127.633 88.758 122.228C91.9297 116.82 97.5809 112.198 106.562 108.969L107.498 108.633L107.21 109.585C106.384 112.311 105.316 116.781 104.803 121.309C104.365 125.173 104.343 128.997 105.161 131.816C106.464 127.334 108.832 121.189 112.18 115.704C115.905 109.601 120.919 104.192 127.133 102.949L127.857 102.818C135.359 101.606 143.692 104.642 150.941 109.332C157.747 113.736 163.682 119.654 167.184 125.073C167.148 121.335 167.44 116.457 168.419 112.153C168.996 109.618 169.818 107.25 170.975 105.428C172.133 103.603 173.66 102.278 175.649 101.946L176.468 101.81L176.205 102.598C175.632 104.318 174.89 107.233 174.54 110.357C174.247 112.976 174.238 115.694 174.798 117.967C176.021 115.125 177.657 112.101 179.636 109.436C181.913 106.368 184.673 103.735 187.815 102.428C190.985 101.109 194.508 101.158 198.22 103.393C201.649 105.456 205.217 109.372 208.855 115.736C208.992 112.227 208.427 107.573 206.347 103.413C203.936 98.5909 199.49 94.4154 191.676 93.4365L191.393 93.4102C188.359 93.1705 182.009 94.1159 178.66 99.6973L178.311 100.279L177.859 99.7725C175.653 97.2999 171.959 95.4178 167.109 94.2188L166.123 93.9873C164.141 93.5484 161.987 93.2202 159.687 93.0049L158.693 92.9189ZM190.363 14.2773C179.294 2.6195 166.047 -0.0579276 153.951 1.33593C141.834 2.73239 130.888 8.21645 124.526 12.8437L124.294 13.0127L124.031 12.8984C102.564 3.55617 85.9802 6.0161 73.9651 12.8242C61.9231 19.6476 54.4151 30.871 51.1975 39.1211L51.0735 39.4394H50.7317C24.59 39.4394 9.80221 57.9271 5.68774 67.1436L5.67797 67.166L5.66625 67.1865C-0.0551839 77.2484 0.152877 86.7247 2.7307 94.4951C5.23366 102.04 9.97272 107.977 13.6975 111.25L14.0549 111.559L14.0588 111.562L14.7649 112.158C22.0961 118.185 30.6634 120.076 38.4856 119.952C46.567 119.824 53.8202 117.545 58.011 115.491L58.4866 115.258L64.885 130.46C66.2598 128.929 67.6796 127.448 69.1399 126.014L57.6028 98.2295L57.9778 98.0088C64.7214 94.042 68.3544 89.7636 69.303 88.1826L69.4446 87.9453L69.7209 87.9395C88.7549 87.5429 99.7358 77.862 102.813 73.166L102.99 72.8965L103.307 72.9453C123.956 76.1221 136.985 68.3019 140.864 64.1006L141.083 63.8633L141.39 63.9658C144.866 65.1245 147.629 64.4317 148.508 63.9922L149.012 63.7402L159.094 91.9492C161.351 92.1365 163.481 92.4285 165.463 92.8262L160.025 77.4395H160.732C184.815 77.4393 196.114 58.3592 198.749 48.8066L198.752 48.7969L198.946 48.1152C200.854 41.0713 199.913 34.0665 197.907 28.1113C195.841 21.9726 192.656 16.9845 190.363 14.2773ZM141.375 65.0098C137.034 69.488 123.88 77.0225 103.467 73.9785C100.006 79.0025 88.8719 88.452 70.01 88.9316C68.8061 90.782 65.1929 94.8465 58.8586 98.6465L69.9123 125.268C95.7797 100.403 133.839 90.2552 158.002 91.8682L148.437 65.1025C147.093 65.5796 144.492 65.9712 141.375 65.0098Z" fill="black"/>
<path d="M9.2313 78.9398C6.8313 116.94 38.898 115.106 55.2313 109.44L52.7313 101.44C43.9313 101.44 41.7313 99.4398 41.7313 98.4398C52.1313 97.6398 60.7313 90.4398 63.7313 86.9398C59.3313 85.3398 55.5647 81.2731 54.2313 79.4398C78.6313 86.2398 99.7313 71.2731 107.231 62.9398C107.231 64.9398 106.231 68.4398 105.731 69.9398C118.931 71.9398 131.565 66.7731 136.231 63.9398C129.431 60.3398 128.065 56.4398 128.231 54.9398C141.031 63.3398 157.231 56.7731 163.731 52.4398C160.931 59.2398 156.231 62.9398 154.231 63.9398L157.731 69.9398C169.731 73.1398 182.398 64.2731 187.231 59.4398C201.231 37.4398 187.065 19.6064 178.231 13.4397C165.431 3.43973 143.565 9.27306 134.231 13.4397C119.831 25.0397 113.565 25.6064 112.231 24.4397L119.731 17.9398C104.131 10.7398 87.5647 14.9398 81.2313 17.9398C60.4313 25.5398 51.898 48.7731 50.2313 59.4398C46.2313 55.4398 47.2313 48.7731 48.2313 45.9398C19.0313 49.5398 10.0646 69.4398 9.2313 78.9398Z" fill="white"/>
<path d="M154.887 7.62905C163.165 6.89594 171.974 7.93051 178.517 13.0294C183 16.1594 188.826 22.2369 191.764 30.3312C194.711 38.4518 194.739 48.5734 187.654 59.7082L187.623 59.7541L187.585 59.7931C185.132 62.2467 180.708 65.708 175.377 68.1564C170.049 70.6035 163.757 72.0641 157.603 70.423L157.404 70.3693L157.299 70.1916L153.531 63.7306L154.008 63.4923C155.756 62.6181 159.82 59.4741 162.601 53.7365C159.202 55.7441 154.119 57.9595 148.43 58.9572C142.169 60.0551 135.133 59.6833 128.809 55.8898C128.958 56.5306 129.313 57.3803 130.024 58.3585C131.141 59.8969 133.118 61.7261 136.465 63.4982L137.243 63.9103L136.49 64.3673C131.76 67.2395 119.008 72.4567 105.656 70.4337L105.07 70.3449L105.257 69.7814C105.503 69.0438 105.874 67.8075 106.183 66.5109C106.36 65.7656 106.511 65.0135 106.611 64.3312C102.621 68.4314 95.8397 73.6836 87.2639 77.3253C78.2953 81.1338 67.3423 83.1879 55.5647 80.3019C57.2933 82.2967 60.4059 85.1984 63.9026 86.4699L64.5813 86.7169L64.1106 87.2648C61.1319 90.7399 52.7336 97.8025 42.4651 98.8732C42.4928 98.9036 42.5234 98.936 42.5578 98.9689C42.8385 99.2367 43.324 99.5496 44.1086 99.8468C45.6788 100.442 48.3612 100.94 52.7317 100.94H53.0989L55.8528 109.753L55.3948 109.912C47.1787 112.763 34.948 114.674 25.0344 111.034C20.0608 109.208 15.6663 105.981 12.676 100.782C9.6897 95.5905 8.12846 88.4751 8.73265 78.9083V78.8957C9.5844 69.1877 18.7102 49.0756 48.1701 45.4435L48.9719 45.3449L48.7024 46.1056C48.2212 47.469 47.7343 49.7797 47.8557 52.2277C47.9614 54.359 48.526 56.5522 49.9133 58.3263C50.9069 52.9147 53.4586 44.9272 58.1291 37.2794C63.105 29.1318 70.5088 21.3336 81.0324 17.4796C87.4602 14.4408 104.175 10.2092 119.941 17.4855L120.644 17.8107L113.152 24.3029C113.405 24.3514 113.739 24.3762 114.171 24.3458C115.101 24.2805 116.406 23.9752 118.142 23.2648C121.613 21.8443 126.737 18.834 133.917 13.05L133.968 13.0099L134.028 12.9835C138.736 10.8815 146.59 8.3639 154.887 7.62905ZM177.923 13.8341C171.669 8.9478 163.155 7.9008 154.976 8.62515C146.839 9.34577 139.121 11.8116 134.49 13.8712C127.299 19.6591 122.107 22.722 118.521 24.1896C116.724 24.9249 115.311 25.2677 114.241 25.3429C113.192 25.4167 112.384 25.2379 111.902 24.8156L111.47 24.4376L118.811 18.0744C103.599 11.4038 87.6 15.4765 81.4455 18.3917L81.424 18.4015L81.4026 18.4093C71.1408 22.1589 63.8858 29.7713 58.9826 37.7999C54.078 45.831 51.5489 54.243 50.7248 59.5167L50.5735 60.4884L49.8782 59.7931C47.7604 57.6754 46.9853 54.871 46.8567 52.2765C46.7484 50.0921 47.0958 48.0169 47.5178 46.5382C19.1955 50.359 10.5375 69.7748 9.72972 78.9835C9.13608 88.4102 10.6829 95.3118 13.5432 100.284C16.4007 105.252 20.5938 108.338 25.3782 110.095C34.8015 113.555 46.5031 111.848 54.6076 109.122L52.3625 101.937C48.1448 101.91 45.4354 101.419 43.7541 100.782C42.8889 100.455 42.2743 100.08 41.8674 99.6916C41.465 99.3074 41.2317 98.8732 41.2317 98.4396V97.9767L41.6926 97.9416C51.4128 97.1938 59.5674 90.7339 62.8811 87.1398C58.6456 85.3453 55.118 81.5082 53.8274 79.7335L52.9826 78.5724L54.3655 78.9582C66.4311 82.3207 77.6882 80.3049 86.8733 76.4044C96.0645 72.5014 103.155 66.7212 106.86 62.6056L107.732 61.6369V62.9396C107.732 64.0019 107.469 65.4254 107.155 66.7433C106.909 67.7799 106.622 68.777 106.388 69.5275C118.566 71.18 130.182 66.7589 135.213 63.9503C132.222 62.2537 130.343 60.5002 129.214 58.9455C127.999 57.272 127.633 55.7998 127.735 54.8849L127.824 54.0744L128.506 54.5216C134.767 58.6301 141.875 59.0909 148.257 57.9718C154.643 56.8519 160.254 54.1568 163.454 52.0236L164.818 51.1144L164.194 52.63C161.542 59.0707 157.206 62.7995 154.922 64.131L158.057 69.505C163.841 70.9817 169.805 69.6159 174.96 67.2482C180.143 64.8679 184.45 61.5018 186.838 59.1242C193.723 48.2776 193.664 38.4995 190.823 30.673C187.97 22.8094 182.295 16.8866 177.946 13.8498L177.934 13.8419L177.923 13.8341Z" fill="black"/>
<path d="M42.2314 190.44C41.2316 190.94 45.1242 172.489 57.7313 182.44L57.7662 182.467C59.319 183.693 65.0404 188.207 66.2313 196.94C65.7313 197.94 63.7314 193.44 59.7314 193.44C58.7314 193.44 56.7313 193.341 56.7313 198.44C56.7313 203.44 56.2231 200.177 59.7313 205.44C60.7313 206.94 55.0314 206.44 52.2314 198.44C51.898 196.773 51.9314 192.54 54.7314 188.94C50.2314 179.435 43.2313 189.94 42.2314 190.44Z" fill="black"/>
<path d="M106.731 221.94C112.898 234.773 133.231 257.74 165.231 246.94C164.731 240.606 159.031 227.74 140.231 226.94C141.231 230.44 142.931 237.64 141.731 238.44C140.231 239.44 132.231 212.44 106.731 221.94Z" fill="white"/>
<path d="M216.231 157.94C215.898 145.44 211.331 120.24 195.731 119.44C192.398 119.273 185.931 122.94 186.731 138.94C189.731 135.106 196.931 131.24 201.731 146.44C206.531 161.64 194.231 154.44 194.231 154.44L204.231 154.94C204.731 154.606 205.631 155.64 205.231 162.44L216.231 157.94Z" fill="white"/>
<path d="M129.231 117.94C122.898 120.44 112.131 133.54 119.731 165.94C122.565 175.94 133.236 193.039 151.231 189.44C158.731 187.94 168.231 178.34 162.231 147.94C159.398 135.606 148.831 112.34 129.231 117.94Z" fill="black"/>
<path d="M106.557 221.471C113.017 219.065 118.406 218.958 122.878 220.169C127.345 221.377 130.856 223.888 133.587 226.651C136.316 229.412 138.278 232.436 139.644 234.688C140.334 235.828 140.854 236.739 141.26 237.353C141.376 237.529 141.476 237.666 141.558 237.77C141.56 237.762 141.563 237.754 141.565 237.745C141.619 237.52 141.647 237.204 141.644 236.801C141.638 235.999 141.512 234.946 141.313 233.787C140.918 231.473 140.248 228.817 139.751 227.078L139.561 226.411L140.253 226.44C149.775 226.845 156.026 230.313 159.959 234.524C163.88 238.721 165.471 243.63 165.729 246.901L165.761 247.289L165.392 247.414C149.24 252.865 136.004 249.795 126.034 243.729C116.084 237.675 109.398 228.645 106.28 222.157L106.043 221.663L106.557 221.471ZM122.616 221.133C118.487 220.016 113.481 220.061 107.426 222.218C110.572 228.523 117.047 237.091 126.554 242.876C136.215 248.754 149.017 251.765 164.693 246.59C164.359 243.529 162.827 239.059 159.229 235.207C155.58 231.301 149.787 228.004 140.9 227.475C141.375 229.205 141.943 231.54 142.299 233.618C142.5 234.795 142.637 235.911 142.644 236.794C142.647 237.233 142.619 237.639 142.539 237.975C142.473 238.253 142.354 238.561 142.117 238.772L142.009 238.856C141.807 238.991 141.582 238.989 141.402 238.924C141.246 238.868 141.12 238.766 141.026 238.676C140.835 238.494 140.633 238.218 140.426 237.904C140.007 237.27 139.456 236.309 138.788 235.207C137.435 232.975 135.522 230.031 132.876 227.354C130.232 224.679 126.868 222.284 122.616 221.133ZM56.2314 198.44C56.2314 195.854 56.7326 194.428 57.5058 193.67C58.295 192.897 59.2543 192.94 59.7314 192.94C61.9289 192.94 63.5498 194.178 64.6367 195.201C64.91 195.458 65.1544 195.707 65.3652 195.92C65.4504 196.007 65.53 196.086 65.6025 196.158C64.3809 189.214 60.2331 185.166 58.2041 183.464L57.456 182.86L57.4219 182.833C54.3351 180.396 51.8641 179.762 49.9258 180.056C47.9824 180.352 46.4494 181.6 45.2822 183.192C44.1156 184.783 43.3507 186.672 42.9404 188.136C42.8141 188.587 42.7255 188.991 42.667 189.327C42.9301 189.042 43.2547 188.686 43.6123 188.312C44.4867 187.398 45.6324 186.297 46.9072 185.512C48.1768 184.731 49.6513 184.217 51.1474 184.611C52.6525 185.008 54.0265 186.282 55.1836 188.726L55.3144 189.004L55.126 189.247C52.4536 192.682 52.41 196.727 52.7158 198.311C54.0817 202.19 56.1275 204.201 57.6533 205.068C58.363 205.471 58.9237 205.606 59.2412 205.608C58.4136 204.375 57.8234 203.638 57.4053 203.158C57.1886 202.909 57.0181 202.727 56.873 202.57C56.734 202.419 56.6026 202.273 56.5 202.119C56.2627 201.763 56.2146 201.418 56.207 200.911C56.2 200.44 56.2314 199.648 56.2314 198.44ZM129.563 117.33C139.393 114.728 146.97 119.252 152.406 125.898C157.744 132.424 161.078 141.056 162.579 147.238L162.719 147.828L162.721 147.836L162.722 147.843C165.731 163.092 164.871 173.2 162.258 179.713C159.719 186.042 155.528 188.96 151.699 189.85L151.329 189.93C142.134 191.769 134.808 188.31 129.448 183.15C124.102 178.003 120.686 171.145 119.25 166.076L119.244 166.054C111.623 133.564 122.364 120.114 129.048 117.475L129.07 117.465L129.094 117.46L129.563 117.33ZM151.632 126.532C146.267 119.973 138.924 115.702 129.395 118.413C123.408 120.795 112.65 133.549 120.215 165.814C121.614 170.744 124.95 177.43 130.143 182.429C135.326 187.419 142.333 190.71 151.133 188.95L151.47 188.877C154.963 188.065 158.904 185.388 161.33 179.341C163.841 173.081 164.731 163.195 161.744 148.051L161.458 146.874C159.915 140.838 156.677 132.7 151.632 126.532ZM195.757 118.941L196.135 118.964C204.03 119.568 209.071 126.241 212.172 134.12C215.333 142.153 216.564 151.639 216.731 157.926L216.74 158.272L204.686 163.204L204.732 162.411C204.932 159.021 204.803 157.12 204.581 156.124C204.5 155.758 204.412 155.553 204.351 155.446L204.206 155.439L202.5 155.353C202.283 155.641 202.029 155.879 201.743 156.068C201.16 156.452 200.482 156.612 199.802 156.639C198.455 156.694 196.987 156.235 195.891 155.791C195.335 155.565 194.859 155.337 194.522 155.165C194.354 155.079 194.22 155.006 194.127 154.955C194.081 154.929 194.044 154.909 194.02 154.895C194.007 154.888 193.997 154.882 193.99 154.878C193.987 154.877 193.984 154.875 193.982 154.874L193.979 154.872C193.979 154.871 193.979 154.871 194.231 154.44L193.979 154.872L194.256 153.94L201.957 154.325C202.012 154.209 202.065 154.084 202.109 153.947C202.536 152.641 202.448 150.37 201.255 146.59C198.865 139.023 195.95 136.45 193.476 136.045C190.977 135.637 188.589 137.377 187.125 139.248L186.299 140.303L186.232 138.964C185.829 130.905 187.251 125.868 189.266 122.85C191.285 119.825 193.895 118.848 195.757 118.941ZM195.706 119.939C194.235 119.866 191.945 120.639 190.098 123.405C188.344 126.031 186.986 130.469 187.183 137.671C188.77 136.051 191.084 134.642 193.637 135.059C196.712 135.563 199.798 138.657 202.208 146.29C203.414 150.11 203.589 152.638 203.06 154.257C203.046 154.298 203.029 154.338 203.015 154.378L204.139 154.434C204.247 154.395 204.368 154.374 204.501 154.392C204.714 154.421 204.887 154.533 205.018 154.67C205.263 154.928 205.433 155.35 205.557 155.906C205.79 156.952 205.908 158.743 205.77 161.679L215.719 157.609C215.518 151.398 214.29 142.233 211.241 134.486C208.173 126.688 203.347 120.519 196.055 119.961L195.706 119.939ZM196.805 155.069C197.749 155.409 198.817 155.678 199.761 155.64C200.278 155.619 200.733 155.505 201.107 155.284L196.805 155.069ZM57.2314 198.44C57.2314 199.732 57.1997 200.407 57.207 200.895C57.2138 201.347 57.2578 201.453 57.332 201.564C57.3851 201.644 57.4644 201.736 57.6084 201.892C57.7463 202.042 57.9314 202.238 58.1601 202.501C58.6211 203.03 59.2597 203.831 60.1474 205.163L60.208 205.263C60.3439 205.51 60.4234 205.835 60.2441 206.147C60.0557 206.475 59.6948 206.577 59.4199 206.602C58.8391 206.654 58.0271 206.43 57.1592 205.937C55.3898 204.932 53.1938 202.702 51.7597 198.605L51.748 198.572L51.7412 198.538C51.3948 196.805 51.4257 192.57 54.1465 188.885C53.09 186.77 51.9529 185.857 50.8926 185.578C49.7797 185.284 48.5983 185.645 47.4306 186.364C46.2682 187.08 45.1948 188.105 44.3349 189.003C43.9025 189.456 43.542 189.856 43.2363 190.183C43.0874 190.342 42.9505 190.485 42.832 190.598C42.7266 190.698 42.5921 190.819 42.4551 190.887C42.3793 190.925 42.2704 190.96 42.1406 190.948C42.0048 190.935 41.893 190.874 41.8125 190.799C41.6752 190.672 41.6314 190.509 41.6142 190.431C41.574 190.25 41.5762 190.02 41.5947 189.792C41.6335 189.312 41.7615 188.638 41.9775 187.867C42.4099 186.323 43.2183 184.315 44.4756 182.6C45.7324 180.886 47.4744 179.418 49.7754 179.068C51.9371 178.739 54.4834 179.414 57.4433 181.591L58.041 182.047L58.0762 182.075L58.4189 182.347C60.3644 183.911 65.5842 188.495 66.7265 196.873L66.748 197.025L66.6787 197.164C66.6176 197.286 66.5153 197.424 66.3467 197.51C66.1712 197.6 65.9936 197.597 65.8525 197.562C65.6116 197.502 65.3952 197.33 65.2373 197.191C65.0608 197.036 64.8614 196.834 64.6533 196.623C64.4405 196.407 64.2087 196.172 63.9512 195.929C62.9131 194.952 61.5339 193.94 59.7314 193.94C59.2086 193.94 58.6669 193.934 58.206 194.385C57.7294 194.853 57.2314 195.928 57.2314 198.44Z" fill="white"/>
<path d="M132.231 122.94C123.031 123.74 121.398 137.94 121.731 144.94C129.731 133.74 137.731 145.94 140.731 153.44L132.231 160.94L142.731 162.94C147.131 166.94 140.731 185.94 142.731 185.94C144.731 185.94 145.731 186.469 150.231 185.94C158.731 184.94 160.565 162.606 158.731 153.44C151.931 125.84 138.231 121.606 132.231 122.94Z" fill="white"/>
<path d="M132.159 122.445C138.47 121.07 151.971 125.518 158.892 152.038L159.217 153.32L159.219 153.331L159.222 153.342C160.154 158 160.149 165.941 158.848 172.845C158.197 176.298 157.215 179.53 155.839 181.974C154.468 184.41 152.647 186.159 150.289 186.436C145.773 186.968 144.588 186.44 142.732 186.44C142.562 186.44 142.399 186.387 142.262 186.281C142.133 186.181 142.05 186.052 141.995 185.933C141.891 185.705 141.852 185.421 141.838 185.139C141.811 184.562 141.886 183.765 142.011 182.842C142.26 181.003 142.743 178.452 143.137 175.864C143.536 173.244 143.855 170.529 143.806 168.231C143.781 167.083 143.666 166.057 143.431 165.21C143.212 164.419 142.896 163.816 142.488 163.402L131.135 161.24L140.133 153.301C138.619 149.625 135.974 145.006 132.802 142.574C131.179 141.33 129.472 140.697 127.734 140.981C125.992 141.266 124.095 142.491 122.138 145.23L121.3 146.403L121.232 144.964C121.063 141.424 121.39 136.058 122.932 131.456C124.465 126.882 127.27 122.885 132.159 122.445ZM158.242 153.547C151.468 126.069 137.942 122.182 132.339 123.428L132.307 123.435L132.275 123.438C127.982 123.812 125.378 127.306 123.88 131.773C122.578 135.659 122.166 140.145 122.193 143.524C123.961 141.403 125.767 140.29 127.573 139.995C129.677 139.651 131.658 140.437 133.411 141.78C136.894 144.451 139.685 149.478 141.196 153.254L141.327 153.582L141.062 153.814L133.326 160.639L142.963 162.475L143.068 162.57C143.712 163.156 144.13 163.989 144.395 164.943C144.66 165.9 144.781 167.016 144.806 168.211C144.857 170.6 144.526 173.386 144.125 176.015C143.72 178.677 143.252 181.127 143.001 182.975C142.877 183.896 142.815 184.614 142.837 185.092C142.845 185.258 142.863 185.371 142.881 185.442C144.916 185.466 145.796 185.958 150.173 185.443C152.065 185.22 153.661 183.803 154.967 181.483C156.268 179.173 157.224 176.061 157.865 172.66C159.146 165.86 159.141 158.056 158.242 153.547Z" fill="black"/>
</svg>
