<svg width="279" height="325" viewBox="0 0 279 325" fill="none" xmlns="http://www.w3.org/2000/svg">
<path d="M278.231 187.44C278.231 263.379 216.67 324.94 140.731 324.94C64.7919 324.94 3.23108 263.379 3.23108 187.44C3.23108 111.501 64.7919 49.9397 140.731 49.9397C216.67 49.9397 278.231 111.501 278.231 187.44Z" fill="white"/>
<path d="M275.231 187.44C275.231 113.157 215.013 52.9397 140.731 52.9397C66.4488 52.9397 6.23108 113.157 6.23108 187.44C6.23108 261.722 66.4488 321.94 140.731 321.94V324.94C64.7919 324.94 3.23108 263.379 3.23108 187.44C3.23108 111.501 64.7919 49.9397 140.731 49.9397C216.67 49.9397 278.231 111.501 278.231 187.44C278.231 263.379 216.67 324.94 140.731 324.94V321.94C215.013 321.94 275.231 261.722 275.231 187.44Z" fill="black"/>
<path d="M104.5 173.5C96.1667 170.167 78.4 167.6 74 184C66.8334 174.667 49.5 160.4 37.5 178C35.3334 194.5 39.2 224.9 72 214.5C71.6667 216.667 70.3 221.3 67.5 222.5C73.6667 233.667 92.2 257.3 117 262.5C113.167 258.667 105 249.4 103 243C111.5 250.167 131.1 264.9 141.5 266.5C150 267.833 170.9 265.9 186.5 247.5C187.833 246.833 189 248.2 183 259C200.333 252.667 233.9 230.1 229.5 190.5C224.667 193.5 214.1 199.7 210.5 200.5C212 202 215.8 204.7 219 203.5C222.2 202.3 220.333 203.667 219 204.5C218.667 205.5 216.5 207.7 210.5 208.5C207.833 211.5 201.3 217.6 196.5 218C191.833 233.167 173.5 261.9 137.5 255.5C136 255.5 94.5 240.5 93 194C93.3333 191.5 92 189.3 84 200.5C83.1667 198.5 83.8 192.4 93 184C96.9576 183.842 104.945 184.796 106.765 189.691C106.874 189.962 106.951 190.238 107 190.5C106.94 190.219 106.861 189.95 106.765 189.691C106.043 187.896 103.934 186.329 99.5 190.5C104.833 195.833 122.8 208.1 152 214.5C167.167 216.333 199.3 216.4 206.5 202C199.333 203.167 184 202.9 180 192.5C192.833 197 221.1 199 231.5 171C231 165.167 220 157.8 180 175C182 173.833 186.6 171 189 169C183 154.667 175.1 124.4 191.5 118C192.5 118.5 201 111 209 119.5C208.667 114.167 204.7 103.5 191.5 103.5C187.5 103.333 178.7 106.7 175.5 121.5C175 119 174.3 111.9 175.5 103.5C172.167 103.5 166.1 108.3 168.5 127.5C163 118.5 147.1 101.1 127.5 103.5C122.833 104.5 111.7 112.1 104.5 134.5C103.667 130.333 103 119.9 107 111.5C92.3334 115.833 71.3001 134.3 104.5 173.5Z" fill="white"/>
<path d="M128.371 102.904C137.969 102.023 146.633 105.765 153.582 110.821C159.861 115.39 164.776 121.057 167.768 125.45C166.94 117.014 167.834 111.533 169.394 108.094C171.084 104.369 173.584 103 175.5 103H176.077L175.995 103.571C175.089 109.915 175.276 115.507 175.633 118.897C179.274 106.023 187.454 102.844 191.5 103.001V103C198.255 103 202.689 105.738 205.465 109.186C208.224 112.614 209.327 116.718 209.499 119.469L209.586 120.851L208.635 119.843C206.694 117.78 204.743 116.708 202.906 116.234C201.065 115.759 199.305 115.875 197.737 116.237C196.166 116.6 194.799 117.206 193.744 117.703C193.227 117.946 192.76 118.175 192.4 118.322C192.22 118.396 192.041 118.46 191.878 118.495C191.793 118.513 191.675 118.531 191.546 118.52C187.681 120.074 185.231 123.018 183.815 126.827C182.378 130.696 182.014 135.449 182.349 140.492C183.019 150.577 186.474 161.671 189.462 168.807L189.604 169.147L189.32 169.385C188.287 170.245 186.858 171.251 185.403 172.216C202.259 165.476 213.427 163.477 220.59 163.863C228.512 164.29 231.716 167.676 231.998 170.958L232.008 171.069L231.968 171.175C226.705 185.344 216.897 191.951 206.781 194.424C197.234 196.757 187.429 195.409 180.909 193.33C183.034 197.654 187.381 199.981 192.176 201.1C197.327 202.303 202.883 202.082 206.42 201.507L207.385 201.349L206.947 202.223C205.079 205.96 201.612 208.721 197.291 210.739C192.968 212.757 187.75 214.052 182.308 214.833C171.424 216.395 159.554 215.917 151.94 214.997L151.917 214.994L151.893 214.988C122.618 208.572 104.559 196.266 99.1462 190.853L98.782 190.489L99.157 190.136C101.322 188.099 103.047 187.308 104.412 187.353C103.36 186.508 102.012 185.879 100.538 185.428C97.9662 184.643 95.1359 184.437 93.1999 184.496C88.7273 188.607 86.3544 192.131 85.197 194.846C84.3688 196.79 84.1731 198.293 84.2488 199.302C85.9518 196.967 87.338 195.268 88.4626 194.066C89.716 192.727 90.6838 191.963 91.4333 191.651C91.8136 191.493 92.1896 191.43 92.5368 191.522C92.9005 191.619 93.1491 191.865 93.3015 192.152C93.575 192.668 93.5802 193.386 93.5007 194.018C94.2548 217.084 104.917 232.327 115.583 241.814C120.921 246.563 126.259 249.869 130.354 251.986C132.402 253.045 134.136 253.804 135.401 254.299C136.034 254.546 136.545 254.727 136.919 254.844C137.106 254.902 137.254 254.943 137.363 254.969C137.488 255 137.52 255 137.5 255H137.544L137.588 255.008C155.424 258.179 168.859 252.65 178.425 244.458C188.007 236.251 193.711 225.363 196.022 217.853L196.122 217.53L196.459 217.502C198.705 217.314 201.44 215.77 203.998 213.827C206.534 211.9 208.811 209.648 210.127 208.168L210.25 208.029L210.434 208.005C213.384 207.611 215.36 206.877 216.624 206.142C217.906 205.397 218.414 204.678 218.526 204.342L218.583 204.172L218.647 204.131C217.024 204.545 215.338 204.132 213.902 203.467C212.302 202.725 210.93 201.637 210.146 200.853L209.503 200.21L210.391 200.012C211.232 199.826 212.524 199.31 214.094 198.57C215.654 197.835 217.454 196.896 219.298 195.886C222.984 193.867 226.825 191.571 229.236 190.075L229.91 189.657L229.997 190.445C232.215 210.412 224.856 226.089 214.775 237.555C204.704 249.011 191.904 256.279 183.172 259.469L181.911 259.93L182.563 258.758C185.563 253.357 186.732 250.38 187.008 248.861C187.075 248.487 187.084 248.227 187.064 248.056C187.05 247.937 187.024 247.882 187.011 247.861C186.987 247.858 186.927 247.858 186.806 247.909C171.079 266.388 150.043 268.346 141.423 266.994V266.993C138.746 266.581 135.516 265.334 132.068 263.608C128.612 261.878 124.903 259.652 121.262 257.256C114.764 252.979 108.458 248.147 104.147 244.603C105.36 247.345 107.442 250.466 109.709 253.407C112.465 256.984 115.45 260.243 117.353 262.146L118.541 263.334L116.897 262.989C104.376 260.364 93.4633 253.093 84.9206 245.102C76.3768 237.111 70.1699 228.369 67.0622 222.742L66.7956 222.259L67.3034 222.041C68.5288 221.516 69.5026 220.2 70.2214 218.652C70.7702 217.47 71.1405 216.214 71.3552 215.221C63.4657 217.599 57.2163 217.613 52.3093 215.979C47.2309 214.288 43.6509 210.854 41.2038 206.587C36.3285 198.086 35.9155 186.23 37.0046 177.935L37.0202 177.817L37.0866 177.719C40.1374 173.244 43.56 170.75 47.1189 169.719C50.6736 168.69 54.3029 169.139 57.739 170.432C64.2231 172.874 70.1172 178.361 73.7917 182.928C74.9498 179.226 76.8197 176.514 79.1296 174.588C81.6276 172.505 84.6107 171.363 87.6941 170.856C93.0462 169.977 98.7528 171 102.925 172.392C87.3232 153.459 84.3829 139.328 87.32 129.285C90.3267 119.004 99.431 113.215 106.858 111.02L107.933 110.703L107.452 111.715C104.054 118.85 104.077 127.511 104.676 132.391C108.186 122.208 112.512 115.24 116.576 110.644C120.884 105.772 124.922 103.542 127.395 103.011L127.417 103.007L127.439 103.004L128.371 102.904ZM152.993 111.63C145.947 106.503 137.206 102.823 127.584 103.994C125.387 104.473 121.536 106.544 117.325 111.306C113.111 116.072 108.559 123.508 104.976 134.653L104.387 136.485L104.009 134.598C103.199 130.546 102.54 120.653 106.088 112.314C99.0748 114.67 91.0183 120.202 88.28 129.565C85.4075 139.387 88.3273 153.63 104.882 173.177L104.314 173.965C100.2 172.319 93.7708 170.871 87.8562 171.844C84.9062 172.328 82.1014 173.412 79.7702 175.356C77.4428 177.297 75.5592 180.119 74.4831 184.13L74.2204 185.108L73.6032 184.304C70.0478 179.674 63.9925 173.855 57.3865 171.368C54.0935 170.128 50.6913 169.727 47.3972 170.68C44.1323 171.626 40.9114 173.92 37.9802 178.182C36.9223 186.38 37.3773 197.904 42.071 206.089C44.4197 210.184 47.8212 213.43 52.6247 215.03C57.4362 216.632 63.7157 216.602 71.8493 214.023L72.6169 213.78L72.4939 214.576C72.3214 215.697 71.8852 217.444 71.1286 219.073C70.4619 220.509 69.5061 221.935 68.1911 222.706C71.328 228.257 77.3653 236.667 85.6042 244.373C93.6901 251.936 103.865 258.79 115.461 261.634C113.599 259.68 111.182 256.956 108.917 254.017C106.141 250.416 103.551 246.44 102.523 243.149L102.011 241.512L103.322 242.618C107.56 246.191 114.569 251.653 121.812 256.42C125.434 258.803 129.107 261.007 132.516 262.714C135.72 264.317 138.662 265.466 141.096 265.924L141.576 266.006L141.578 266.007L142.397 266.119C151.232 267.183 171.138 264.847 186.119 247.177L186.185 247.098L186.276 247.053C186.638 246.871 187.259 246.69 187.713 247.143C187.921 247.352 188.022 247.637 188.057 247.939C188.093 248.243 188.07 248.609 187.992 249.039C187.707 250.608 186.62 253.378 184.091 258.05C192.634 254.689 204.555 247.665 214.024 236.895C223.827 225.746 230.989 210.599 229.084 191.34C226.656 192.832 223.155 194.913 219.778 196.763C217.926 197.778 216.106 198.728 214.521 199.474C213.383 200.011 212.345 200.45 211.496 200.734C212.226 201.352 213.219 202.048 214.323 202.559C215.805 203.246 217.405 203.564 218.824 203.032C219.618 202.734 220.157 202.571 220.483 202.536C220.568 202.527 220.67 202.522 220.772 202.54C220.864 202.556 221.055 202.608 221.177 202.798C221.309 203 221.266 203.206 221.23 203.307C221.194 203.41 221.136 203.493 221.093 203.548C220.927 203.758 220.612 204.006 220.306 204.228C220.026 204.432 219.705 204.643 219.404 204.834C219.119 205.473 218.391 206.272 217.127 207.008C215.752 207.806 213.7 208.557 210.748 208.969C209.381 210.488 207.121 212.709 204.602 214.623C202.14 216.494 199.35 218.135 196.878 218.461C194.461 226.104 188.693 236.98 179.075 245.218C169.312 253.579 155.588 259.215 137.438 255.996C137.338 255.988 137.226 255.965 137.127 255.941C136.99 255.908 136.82 255.86 136.62 255.798C136.22 255.672 135.685 255.484 135.037 255.23C133.739 254.723 131.973 253.948 129.895 252.874C125.741 250.726 120.329 247.375 114.918 242.561C104.088 232.928 93.2561 217.432 92.5007 194.016L92.4988 193.975L92.5046 193.934C92.5854 193.328 92.543 192.858 92.4177 192.621C92.3669 192.525 92.3203 192.499 92.279 192.488C92.2215 192.473 92.0823 192.464 91.8171 192.574C91.275 192.8 90.4293 193.429 89.1931 194.75C87.9691 196.057 86.4001 198 84.407 200.791L83.8845 201.522L83.5388 200.692C83.0495 199.518 83.046 197.342 84.2771 194.454C85.5162 191.547 88.0245 187.866 92.6628 183.631L92.7976 183.508L92.9802 183.501C95.0001 183.42 98.0445 183.622 100.83 184.472C103.596 185.317 106.24 186.846 107.233 189.516L107.241 189.539C107.356 189.831 107.439 190.126 107.492 190.408L106.511 190.605C106.457 190.35 106.384 190.106 106.298 189.872C105.975 189.073 105.392 188.431 104.484 188.357C103.587 188.285 102.208 188.745 100.228 190.51C105.916 195.944 123.627 207.764 152.084 214.006C159.638 214.917 171.404 215.387 182.167 213.843C187.554 213.069 192.667 211.795 196.868 209.833C200.715 208.036 203.762 205.68 205.579 202.637C201.954 203.111 196.791 203.205 191.949 202.075C186.646 200.837 181.619 198.103 179.533 192.679L179.145 191.671L180.166 192.028C186.515 194.254 196.689 195.861 206.544 193.452C216.343 191.056 225.843 184.689 230.989 170.934C230.708 168.402 228.129 165.271 220.536 164.862C212.838 164.447 200.173 166.87 180.198 175.46L179.748 174.568C181.672 173.446 185.967 170.798 188.396 168.844C185.417 161.638 182.02 150.627 181.351 140.558C181.011 135.443 181.373 130.533 182.879 126.479C184.39 122.41 187.061 119.195 191.318 117.534L191.525 117.454L191.656 117.518C191.66 117.518 191.665 117.518 191.67 117.517C191.745 117.501 191.858 117.463 192.021 117.396C192.349 117.262 192.773 117.054 193.318 116.798C194.388 116.294 195.834 115.65 197.512 115.262C199.194 114.874 201.122 114.741 203.156 115.265C204.859 115.705 206.612 116.602 208.343 118.16C207.95 115.685 206.864 112.519 204.685 109.813C202.094 106.595 197.944 104 191.5 104H191.479C187.767 103.845 179.148 106.997 175.989 121.606L175.01 121.598C174.511 119.106 173.831 112.237 174.919 104.054C173.528 104.305 171.68 105.477 170.305 108.507C168.726 111.988 167.801 117.883 168.996 127.438L168.073 127.761C165.352 123.309 160.045 116.761 152.993 111.63Z" fill="#1E1E1E"/>
<path d="M159.231 92.9207L149.231 64.9397C148.231 65.4397 145.331 66.1397 141.731 64.9397C137.731 69.273 124.531 77.1397 103.731 73.9397C100.564 78.773 89.4311 88.5397 70.2311 88.9397C69.2311 90.6064 65.5312 94.9397 58.7311 98.9397L70.2311 126.634C96.2685 101.24 135.082 91.035 159.231 92.9207Z" fill="white"/>
<path d="M159.231 92.9207C135.082 91.035 96.2685 101.24 70.2311 126.634C68.5057 128.317 66.8363 130.066 65.2311 131.884C57.3936 140.756 51.0838 151.239 47.231 163.44C39.731 165.106 26.5311 171.04 31.7311 197.44C33.7311 204.94 43.3311 224.84 59.7311 224.44C69.231 241.773 99.6311 276.14 145.231 274.94C162.564 274.773 202.431 266.84 223.231 236.44C230.064 228.44 242.031 206.64 235.231 183.44C239.064 176.773 242.031 162.04 223.231 156.44C221.731 141.773 214.231 112.94 196.231 114.94C173.731 117.44 182.231 158.44 188.231 168.94C181.731 172.273 172.631 177.84 188.231 173.44L215.231 164.44C222.398 163.44 235.231 164.74 229.231 177.94C229.231 178.94 213.231 202.44 181.231 192.44C180.231 192.44 179.231 193.54 183.231 197.94C185.398 199.94 193.031 203.34 206.231 200.94C207.564 202.273 207.731 206.04 197.731 210.44C189.231 213.773 168.031 219.14 151.231 213.94C140.564 212.273 115.231 205.14 99.2311 189.94C100.064 189.106 102.831 187.94 107.231 189.94C108.064 188.94 108.031 186.54 101.231 184.94C92.7311 182.94 83.7311 185.94 83.7311 200.94C83.7311 201.273 84.5311 200.74 87.7311 195.94C89.0644 194.606 91.9311 192.04 92.7311 192.44C92.9779 192.563 93.1638 194.027 93.4616 196.372C94.3707 203.528 96.3225 218.895 104.231 229.44C108.898 236.44 121.731 251.14 135.731 253.94C141.564 255.44 156.331 257.14 168.731 251.94C175.231 249.106 189.831 238.34 196.231 217.94C199.898 216.273 207.931 211.94 210.731 207.94C212.564 207.94 216.631 207.44 218.231 205.44C218.564 204.94 219.031 203.94 218.231 203.94C217.231 203.94 209.231 201.94 210.231 200.44C215.564 198.273 226.931 192.94 229.731 188.94C233.231 203.94 228.431 239.24 181.231 260.44C182.564 258.273 185.631 252.64 187.231 247.44C175.564 262.773 142.431 283.34 103.231 242.94C104.898 247.606 110.531 258.34 119.731 263.94C108.064 261.606 81.1311 250.04 66.7311 222.44C68.7311 220.773 72.5311 216.94 71.7311 214.94C61.8977 219.606 41.0311 220.84 36.2311 188.44C35.2311 180.94 37.7311 170.44 49.7311 169.44C53.7311 169.106 64.7593 170.54 73.2311 182.94C75.0644 176.273 83.6311 164.94 103.231 172.94C89.7311 157.273 71.6311 122.74 107.231 109.94C105.564 115.44 102.931 127.94 105.731 133.94C108.064 124.94 115.731 106.34 127.731 103.94C142.731 100.94 161.731 115.94 168.231 127.44C167.898 119.773 169.031 104.14 176.231 102.94C175.064 106.44 173.231 114.74 175.231 119.94C180.231 107.273 194.131 89.1397 209.731 117.94C210.564 110.606 208.231 95.4397 192.231 93.4397C189.231 93.1063 182.331 93.9396 178.731 99.9396C176.279 97.1898 172.114 95.1912 166.731 93.9996C164.439 93.4922 161.926 93.1311 159.231 92.9207Z" fill="black"/>
<path d="M149.231 64.9397L159.231 92.9207C161.926 93.1311 164.439 93.4922 166.731 93.9996L161.231 78.4397C185.631 78.4397 197.064 59.1064 199.731 49.4397C204.131 34.6397 195.898 19.9397 191.231 14.4397C168.831 -9.16034 137.564 3.60634 124.731 12.9397C81.5311 -5.86032 57.7311 22.773 51.2311 39.4397C24.8311 39.4397 9.89777 58.1063 5.73112 67.4397C-5.86888 87.8397 6.56445 105.94 14.2311 112.44C29.4311 125.64 50.2311 120.606 58.7311 116.44L65.2311 131.884C66.8363 130.066 68.5057 128.317 70.2311 126.634L58.7311 98.9397C65.5312 94.9397 69.2311 90.6064 70.2311 88.9397C89.4311 88.5397 100.564 78.773 103.731 73.9397C124.531 77.1397 137.731 69.273 141.731 64.9397C145.331 66.1397 148.231 65.4397 149.231 64.9397Z" fill="black"/>
<path d="M154.336 0.84277C166.486 -0.557455 179.839 2.07473 191.061 13.543L191.594 14.0957L191.604 14.1055L191.612 14.1162C193.985 16.9123 197.242 22.0177 199.354 28.293C201.467 34.5677 202.446 42.0476 200.212 49.5713L200.213 49.5723C197.54 59.2597 186.167 78.5633 161.935 78.9307L167.11 93.5742C172.105 94.7135 176.107 96.5635 178.652 99.1279C182.352 93.5781 188.849 92.6648 191.984 92.9141L192.286 92.9424L192.293 92.9434L193.05 93.0488C200.768 94.2419 205.274 98.5319 207.741 103.466C210.274 108.531 210.652 114.259 210.228 117.996L210.049 119.575L209.291 118.178C205.411 111.014 201.67 106.835 198.204 104.749C194.766 102.68 191.577 102.654 188.698 103.852C185.79 105.061 183.162 107.536 180.938 110.531C178.72 113.52 176.934 116.988 175.696 120.123L175.225 121.316L174.765 120.119C173.721 117.406 173.69 113.934 174.047 110.746C174.352 108.021 174.948 105.453 175.484 103.651C174.244 104.103 173.198 105.079 172.318 106.464C171.248 108.15 170.458 110.395 169.894 112.876C168.765 117.835 168.565 123.612 168.73 127.418L167.796 127.686C164.593 122.018 158.279 115.449 150.896 110.672C143.735 106.038 135.664 103.152 128.518 104.306L127.829 104.43C122.044 105.587 117.224 110.679 113.533 116.726C109.856 122.75 107.372 129.602 106.215 134.065L105.866 135.411L105.278 134.151C103.814 131.015 103.792 126.265 104.31 121.696C104.774 117.595 105.686 113.548 106.474 110.753C98.1982 113.901 93.0379 118.259 90.1201 123.233C87.0938 128.393 86.4438 134.277 87.3135 140.293C89.0564 152.35 96.8879 164.813 103.609 172.613L103.042 173.402C93.3483 169.446 86.4699 170.3 81.8105 172.877C77.1299 175.466 74.6012 179.842 73.7129 183.072L73.4268 184.113L72.8184 183.222C64.7242 171.374 54.2964 169.714 50.1533 169.913L49.7725 169.938C43.94 170.424 40.4652 173.202 38.5459 176.74C36.612 180.306 36.2365 184.688 36.7256 188.366L36.8398 189.114C39.3083 204.699 45.5663 212.116 52.2978 215.134C59.1685 218.214 66.6847 216.781 71.5166 214.488L71.998 214.26L72.1953 214.754C72.4667 215.432 72.3255 216.198 72.0312 216.911C71.7321 217.636 71.2391 218.396 70.6758 219.121C69.6577 220.432 68.354 221.699 67.3613 222.558C80.7085 247.826 104.638 259.464 117.188 262.825C109.203 256.896 104.303 247.429 102.76 243.107L103.59 242.592C123.105 262.704 141.038 267.577 155.488 265.595C169.969 263.608 181.06 254.725 186.833 247.137L187.709 247.587C186.363 251.961 183.996 256.624 182.465 259.325C227.087 238.631 232.427 205.199 229.457 190.062C228.706 190.874 227.698 191.707 226.543 192.527C224.979 193.639 223.11 194.759 221.171 195.816C217.424 197.86 213.383 199.684 210.696 200.787C210.773 200.889 210.926 201.031 211.187 201.198C211.761 201.564 212.652 201.939 213.644 202.279C214.626 202.617 215.674 202.909 216.536 203.117C216.967 203.221 217.348 203.304 217.649 203.359C217.965 203.417 218.158 203.439 218.231 203.439C218.535 203.44 218.853 203.541 219.039 203.839C219.202 204.1 219.185 204.394 219.147 204.594C219.071 205.006 218.826 205.448 218.647 205.717L218.635 205.735L218.621 205.752C217.717 206.882 216.168 207.542 214.694 207.924C213.329 208.278 211.942 208.414 210.986 208.435C209.49 210.454 206.802 212.501 204.074 214.236C201.337 215.978 198.499 217.443 196.64 218.3C190.157 238.717 175.525 249.524 168.931 252.398L168.925 252.4C156.39 257.657 141.507 255.939 135.613 254.425C128.495 252.995 121.715 248.56 116.149 243.64C110.585 238.719 106.19 233.273 103.831 229.739L103.46 229.236C96.2575 219.266 94.124 205.361 93.1494 197.867L92.9658 196.435C92.8163 195.257 92.6963 194.318 92.584 193.656C92.5275 193.324 92.4756 193.08 92.4277 192.919C92.4273 192.918 92.4262 192.916 92.4258 192.915C92.3282 192.939 92.1954 192.989 92.0273 193.075C91.6659 193.26 91.219 193.563 90.7363 193.936C89.7913 194.664 88.7759 195.604 88.1172 196.261C86.5317 198.637 85.5269 199.98 84.9092 200.692C84.608 201.04 84.3652 201.277 84.1709 201.398C84.1185 201.431 84.0515 201.466 83.9746 201.49C83.9013 201.513 83.7775 201.539 83.6357 201.499C83.4734 201.453 83.3571 201.342 83.2939 201.216C83.2392 201.107 83.2314 201.002 83.2314 200.939C83.2315 193.345 85.5127 188.66 89.0019 186.158C92.4757 183.668 97.018 183.435 101.346 184.453L101.97 184.606C105 185.388 106.673 186.357 107.481 187.349C107.922 187.89 108.112 188.446 108.102 188.972C108.091 189.491 107.886 189.935 107.615 190.26L107.371 190.553L107.024 190.395C103.4 188.747 101.032 189.361 100.005 189.979C107.882 197.315 117.956 202.742 127.418 206.551C136.448 210.186 144.89 212.338 150.273 213.274L151.309 213.445L151.344 213.451L151.379 213.462C159.683 216.032 169.103 215.997 177.528 214.894C185.94 213.792 193.319 211.631 197.534 209.979C202.501 207.793 204.847 205.803 205.808 204.273C206.283 203.517 206.41 202.889 206.373 202.406C206.344 202.029 206.212 201.718 206.036 201.479C192.915 203.797 185.196 200.434 182.892 198.307L182.876 198.292L182.861 198.276C181.849 197.163 181.141 196.245 180.667 195.49C180.197 194.741 179.938 194.123 179.861 193.614C179.782 193.093 179.891 192.642 180.206 192.327C180.504 192.029 180.903 191.939 181.231 191.939H181.308L181.38 191.963C197.232 196.917 209.086 193.569 216.976 188.885C220.927 186.539 223.89 183.854 225.862 181.696C226.848 180.618 227.584 179.674 228.07 178.975C228.314 178.624 228.492 178.34 228.606 178.134C228.664 178.031 228.702 177.954 228.724 177.902C228.727 177.895 228.729 177.888 228.731 177.883V177.831L228.776 177.732C230.251 174.489 230.532 172.051 230.097 170.237C229.665 168.44 228.509 167.176 226.927 166.303C223.73 164.54 218.892 164.44 215.345 164.929L188.378 173.918L188.367 173.921C184.472 175.02 182.061 175.514 180.754 175.562C180.424 175.573 180.136 175.558 179.899 175.505C179.676 175.455 179.41 175.35 179.247 175.107C179.065 174.837 179.104 174.542 179.188 174.329C179.27 174.124 179.414 173.929 179.572 173.754C180.198 173.062 181.521 172.157 183.036 171.24C184.43 170.397 186.041 169.514 187.546 168.732C186.083 166.003 184.523 161.629 183.3 156.541C182.004 151.153 181.075 144.926 181.044 138.942C181.012 132.967 181.875 127.186 184.202 122.724C186.543 118.235 190.367 115.088 196.176 114.442C205.512 113.405 212.035 120.387 216.367 129.22C220.65 137.951 222.905 148.696 223.691 156.059C233.005 158.92 237.045 164.067 238.207 169.434C239.35 174.713 237.679 180.088 235.767 183.5C242.501 206.835 230.499 228.689 223.626 236.746C213.153 252.039 197.9 261.667 183.114 267.492C168.326 273.318 153.969 275.354 145.243 275.438L145.244 275.439C99.6093 276.64 69.1463 242.441 59.4394 224.943C51.1601 225.023 44.6298 220.063 39.9414 214.215C35.1938 208.293 32.2641 201.379 31.248 197.568L31.2441 197.553L31.2402 197.536C28.6243 184.255 30.6171 176.015 34.3125 170.873C37.913 165.863 43.0601 163.895 46.8418 163.017C50.6906 150.968 56.9244 140.592 64.6494 131.789L58.4726 117.113C54.1071 119.161 46.9487 121.326 39.0019 121.452C30.7516 121.583 21.6199 119.519 13.9033 112.817C10.0112 109.516 4.92979 103.293 2.28124 95.3096C-0.372128 87.3113 -0.582084 77.5459 5.28222 67.2168C9.4946 57.8007 24.4622 39.1014 50.8916 38.9424C54.2405 30.5579 61.8423 19.3282 73.9717 12.4551C86.2321 5.50795 103.061 3.04486 124.668 12.3691C131.17 7.69928 142.158 2.2463 154.336 0.84277ZM159.192 93.4189C135.549 91.5728 97.7108 101.392 71.8047 125.818L70.5801 126.992C69.0779 128.457 67.619 129.973 66.208 131.54L65.6055 132.215C57.81 141.039 51.5377 151.463 47.708 163.59L47.6211 163.865L47.3398 163.928C43.6443 164.749 38.6094 166.608 35.125 171.456C31.6472 176.295 29.6397 184.217 32.2178 197.323C33.2048 201.016 36.0735 207.793 40.7207 213.59C45.3751 219.395 51.7424 224.134 59.7187 223.939L60.0234 223.933L60.1699 224.199C69.625 241.451 99.8834 275.632 145.218 274.439H145.227L146.05 274.426C154.725 274.227 168.533 272.162 182.748 266.562C197.42 260.781 212.492 251.25 222.818 236.157L222.834 236.136L222.851 236.115C229.627 228.181 241.484 206.553 234.751 183.58L234.691 183.375L234.798 183.19C236.676 179.925 238.324 174.702 237.229 169.646C236.146 164.64 232.348 159.677 223.088 156.919L222.768 156.823L222.733 156.49C221.987 149.193 219.747 138.381 215.47 129.66C211.177 120.909 204.95 114.474 196.286 115.437C190.846 116.041 187.294 118.957 185.089 123.187C182.869 127.443 182.013 133.038 182.044 138.938C182.075 144.829 182.989 150.977 184.271 156.308C185.555 161.646 187.199 166.125 188.665 168.691L188.925 169.146L188.459 169.385C186.841 170.215 185.064 171.182 183.554 172.096C182.022 173.022 180.827 173.858 180.314 174.425C180.274 174.47 180.243 174.511 180.217 174.546C180.334 174.562 180.498 174.569 180.718 174.562C181.742 174.524 183.633 174.168 186.705 173.342L188.096 172.958L215.073 163.966L215.116 163.951L215.162 163.944C218.778 163.44 223.912 163.497 227.41 165.427C229.182 166.404 230.557 167.876 231.068 170.004C231.572 172.103 231.215 174.759 229.712 178.088C229.693 178.174 229.664 178.248 229.645 178.293C229.604 178.388 229.548 178.499 229.48 178.62C229.345 178.863 229.148 179.177 228.892 179.546C228.378 180.284 227.613 181.262 226.6 182.371C224.572 184.589 221.535 187.34 217.486 189.744C209.391 194.551 197.274 197.95 181.17 192.943C181.035 192.953 180.953 192.994 180.913 193.034C180.884 193.063 180.805 193.161 180.851 193.465C180.898 193.781 181.078 194.264 181.514 194.958C181.943 195.642 182.604 196.505 183.58 197.581C185.607 199.441 193.057 202.826 206.142 200.447L206.399 200.401L206.585 200.586C206.998 200.999 207.314 201.595 207.37 202.329C207.427 203.065 207.221 203.904 206.654 204.806C205.532 206.592 202.962 208.684 197.933 210.897L197.923 210.901L197.914 210.905C193.627 212.587 186.162 214.772 177.658 215.886C169.17 216.997 159.605 217.046 151.118 214.428C145.742 213.584 136.724 211.375 127.044 207.479C117.345 203.574 106.949 197.961 98.8867 190.302L98.5146 189.949L98.8779 189.586C99.867 188.597 102.724 187.493 107.031 189.307C107.073 189.197 107.099 189.078 107.102 188.951C107.107 188.695 107.019 188.364 106.706 187.98C106.1 187.238 104.682 186.34 101.728 185.577L101.116 185.427C96.9441 184.445 92.7362 184.711 89.585 186.971C86.5954 189.114 84.4404 193.137 84.2461 199.925C84.8353 199.228 85.802 197.932 87.3154 195.662L87.3428 195.621L87.3779 195.586C88.0537 194.91 89.1202 193.919 90.126 193.144C90.6266 192.758 91.1296 192.41 91.5723 192.185C91.7928 192.072 92.0186 191.979 92.2344 191.932C92.4158 191.892 92.6421 191.873 92.8613 191.952L92.9551 191.992L93.0176 192.029C93.1549 192.12 93.2292 192.249 93.2646 192.317C93.3148 192.414 93.3542 192.524 93.3867 192.634C93.4524 192.855 93.5122 193.147 93.5703 193.489C93.687 194.177 93.8097 195.141 93.958 196.309L94.1416 197.746C95.1187 205.246 97.231 218.904 104.269 228.647L104.631 229.14L104.64 229.15L104.647 229.162C106.959 232.629 111.306 238.02 116.812 242.89C122.153 247.612 128.541 251.804 135.186 253.312L135.843 253.452L135.855 253.455C141.633 254.941 156.277 256.62 168.538 251.479C174.924 248.692 189.404 238.029 195.754 217.79L195.821 217.577L196.024 217.484C197.84 216.659 200.744 215.17 203.538 213.393C206.348 211.605 208.982 209.566 210.321 207.653L210.471 207.439H210.731C211.613 207.439 213.045 207.319 214.443 206.956C215.853 206.591 217.128 206.003 217.827 205.142C217.971 204.922 218.112 204.641 218.157 204.436C217.982 204.427 217.738 204.392 217.469 204.343C217.145 204.283 216.745 204.197 216.302 204.09C215.414 203.876 214.336 203.574 213.318 203.225C212.31 202.878 211.326 202.472 210.649 202.041C210.318 201.829 210.009 201.58 209.824 201.287C209.728 201.135 209.654 200.952 209.645 200.746C209.637 200.534 209.7 200.335 209.815 200.162L209.9 200.034L210.043 199.977C212.696 198.899 216.853 197.032 220.691 194.938C222.611 193.892 224.442 192.793 225.963 191.712C227.493 190.624 228.672 189.581 229.321 188.653L229.964 187.735L230.218 188.826C233.773 204.062 228.851 239.599 181.436 260.896L179.953 261.562L180.806 260.178C181.901 258.397 184.176 254.25 185.825 249.954C179.579 257.13 169.035 264.745 155.624 266.585C141.238 268.558 123.652 263.872 104.646 245.079C107.013 250.308 112.222 258.784 119.991 263.513L119.633 264.43C107.862 262.075 80.7765 250.44 66.2881 222.671L66.1016 222.313L66.4111 222.056C67.393 221.237 68.8144 219.888 69.8857 218.508C70.4224 217.817 70.8556 217.138 71.1064 216.53C71.2427 216.2 71.3139 215.914 71.333 215.67C66.3194 217.877 58.8215 219.154 51.8887 216.046C44.6355 212.794 38.1517 204.816 35.7363 188.513L35.7353 188.506C35.2259 184.685 35.6022 180.071 37.667 176.264C39.7477 172.428 43.5224 169.455 49.6894 168.941L50.0986 168.915C54.4344 168.705 64.8218 170.399 73.0557 181.823C74.2078 178.53 76.825 174.492 81.3262 172.002C85.9986 169.417 92.6266 168.541 101.604 171.777C95.1273 163.862 87.9968 152.013 86.3232 140.437C85.4305 134.261 86.0873 128.133 89.2578 122.728C92.4294 117.32 98.0807 112.698 107.062 109.469L107.998 109.133L107.71 110.085C106.884 112.811 105.815 117.281 105.303 121.809C104.865 125.673 104.843 129.497 105.661 132.316C106.964 127.834 109.331 121.689 112.68 116.204C116.405 110.101 121.418 104.692 127.633 103.449L128.356 103.318C135.859 102.106 144.192 105.142 151.44 109.832C158.247 114.236 164.182 120.154 167.684 125.573C167.647 121.835 167.94 116.957 168.919 112.653C169.496 110.118 170.318 107.75 171.475 105.928C172.633 104.103 174.16 102.778 176.148 102.446L176.968 102.31L176.705 103.098C176.132 104.818 175.39 107.733 175.04 110.857C174.747 113.476 174.737 116.194 175.298 118.467C176.521 115.625 178.157 112.601 180.136 109.936C182.412 106.868 185.172 104.235 188.314 102.928C191.485 101.609 195.008 101.658 198.72 103.893C202.148 105.956 205.717 109.872 209.354 116.236C209.492 112.727 208.927 108.073 206.847 103.913C204.436 99.0909 199.99 94.9154 192.176 93.9365L191.893 93.9102C188.859 93.6705 182.509 94.6159 179.16 100.197L178.811 100.779L178.358 100.272C176.153 97.7999 172.458 95.9178 167.608 94.7188L166.623 94.4873C164.64 94.0484 162.486 93.7202 160.187 93.5049L159.192 93.4189ZM190.862 14.7773C179.793 3.1195 166.547 0.442072 154.451 1.83593C142.333 3.23239 131.388 8.71645 125.025 13.3437L124.794 13.5127L124.531 13.3984C103.064 4.05617 86.4799 6.5161 74.4648 13.3242C62.4228 20.1476 54.9149 31.371 51.6973 39.6211L51.5732 39.9394H51.2314C25.0898 39.9394 10.302 58.4271 6.18749 67.6436L6.17773 67.666L6.16601 67.6865C0.444572 77.7484 0.652633 87.2247 3.23046 94.9951C5.73342 102.54 10.4725 108.477 14.1973 111.75L14.5547 112.059L14.5586 112.062L15.2646 112.658C22.5959 118.685 31.1631 120.576 38.9853 120.452C47.0667 120.324 54.32 118.045 58.5107 115.991L58.9863 115.758L65.3848 130.96C66.7595 129.429 68.1794 127.948 69.6396 126.514L58.1025 98.7295L58.4775 98.5088C65.2211 94.542 68.8541 90.2636 69.8027 88.6826L69.9443 88.4453L70.2207 88.4395C89.2547 88.0429 100.236 78.362 103.312 73.666L103.489 73.3965L103.807 73.4453C124.456 76.6221 137.485 68.8019 141.363 64.6006L141.583 64.3633L141.89 64.4658C145.366 65.6245 148.129 64.9317 149.008 64.4922L149.512 64.2402L159.594 92.4492C161.85 92.6365 163.981 92.9285 165.963 93.3262L160.524 77.9395H161.231C185.315 77.9393 196.614 58.8592 199.249 49.3066L199.252 49.2969L199.445 48.6152C201.354 41.5713 200.412 34.5665 198.407 28.6113C196.34 22.4726 193.156 17.4845 190.862 14.7773ZM141.875 65.5098C137.534 69.988 124.379 77.5225 103.967 74.4785C100.506 79.5025 89.3716 88.952 70.5098 89.4316C69.3058 91.282 65.6926 95.3465 59.3584 99.1465L70.4121 125.768C96.2794 100.903 134.339 90.7552 158.502 92.3682L148.937 65.6025C147.593 66.0796 144.992 66.4712 141.875 65.5098Z" fill="black"/>
<path d="M9.73106 79.4398C7.33106 117.44 39.3977 115.606 55.7311 109.94L53.2311 101.94C44.4311 101.94 42.2311 99.9398 42.2311 98.9398C52.6311 98.1398 61.2311 90.9398 64.2311 87.4398C59.8311 85.8398 56.0644 81.7731 54.7311 79.9398C79.1311 86.7398 100.231 71.7731 107.731 63.4398C107.731 65.4398 106.731 68.9398 106.231 70.4398C119.431 72.4398 132.064 67.2731 136.731 64.4398C129.931 60.8398 128.564 56.9398 128.731 55.4398C141.531 63.8398 157.731 57.2731 164.231 52.9398C161.431 59.7398 156.731 63.4398 154.731 64.4398L158.231 70.4398C170.231 73.6398 182.898 64.7731 187.731 59.9398C201.731 37.9398 187.564 20.1064 178.731 13.9397C165.931 3.93973 144.064 9.77306 134.731 13.9397C120.331 25.5397 114.064 26.1064 112.731 24.9397L120.231 18.4398C104.631 11.2398 88.0644 15.4398 81.7311 18.4398C60.9311 26.0398 52.3977 49.2731 50.7311 59.9398C46.7311 55.9398 47.7311 49.2731 48.7311 46.4398C19.5311 50.0398 10.5644 69.9398 9.73106 79.4398Z" fill="white"/>
<path d="M155.387 8.12905C163.665 7.39594 172.473 8.43051 179.017 13.5294C183.5 16.6594 189.326 22.7369 192.264 30.8312C195.211 38.9518 195.239 49.0734 188.153 60.2082L188.123 60.2541L188.085 60.2931C185.631 62.7467 181.208 66.208 175.877 68.6564C170.549 71.1035 164.257 72.5641 158.103 70.923L157.903 70.8693L157.799 70.6916L154.03 64.2306L154.508 63.9923C156.256 63.1181 160.32 59.9741 163.101 54.2365C159.702 56.2441 154.619 58.4595 148.93 59.4572C142.669 60.5551 135.633 60.1833 129.309 56.3898C129.458 57.0306 129.813 57.8803 130.523 58.8585C131.64 60.3969 133.618 62.2261 136.965 63.9982L137.743 64.4103L136.99 64.8673C132.259 67.7395 119.508 72.9567 106.156 70.9337L105.569 70.8449L105.757 70.2814C106.003 69.5438 106.374 68.3075 106.683 67.0109C106.86 66.2656 107.011 65.5135 107.11 64.8312C103.121 68.9314 96.3395 74.1836 87.7636 77.8253C78.7951 81.6338 67.842 83.6879 56.0644 80.8019C57.7931 82.7967 60.9057 85.6984 64.4023 86.9699L65.081 87.2169L64.6103 87.7648C61.6316 91.2399 53.2333 98.3025 42.9648 99.3732C42.9925 99.4036 43.0231 99.436 43.0576 99.4689C43.3383 99.7367 43.8238 100.05 44.6084 100.347C46.1786 100.942 48.8609 101.44 53.2314 101.44H53.5986L56.3525 110.253L55.8945 110.412C47.6784 113.263 35.4478 115.174 25.5342 111.534C20.5605 109.708 16.166 106.481 13.1758 101.282C10.1895 96.0905 8.62821 88.9751 9.2324 79.4083V79.3957C10.0842 69.6877 19.21 49.5756 48.6699 45.9435L49.4717 45.8449L49.2021 46.6056C48.721 47.969 48.2341 50.2797 48.3554 52.7277C48.4612 54.859 49.0257 57.0522 50.4131 58.8263C51.4066 53.4147 53.9584 45.4272 58.6289 37.7794C63.6047 29.6318 71.0085 21.8336 81.5322 17.9796C87.96 14.9408 104.675 10.7092 120.44 17.9855L121.144 18.3107L113.651 24.8029C113.905 24.8514 114.238 24.8762 114.671 24.8458C115.601 24.7805 116.905 24.4752 118.642 23.7648C122.113 22.3443 127.237 19.334 134.417 13.55L134.468 13.5099L134.527 13.4835C139.236 11.3815 147.09 8.8639 155.387 8.12905ZM178.423 14.3341C172.168 9.4478 163.655 8.4008 155.476 9.12515C147.339 9.84577 139.621 12.3116 134.99 14.3712C127.798 20.1591 122.607 23.222 119.02 24.6896C117.223 25.4249 115.811 25.7677 114.741 25.8429C113.692 25.9167 112.884 25.7379 112.401 25.3156L111.97 24.9376L119.311 18.5744C104.099 11.9038 88.0997 15.9765 81.9453 18.8917L81.9238 18.9015L81.9023 18.9093C71.6406 22.6589 64.3856 30.2713 59.4824 38.2999C54.5777 46.331 52.0486 54.743 51.2246 60.0167L51.0732 60.9884L50.3779 60.2931C48.2602 58.1754 47.4851 55.371 47.3564 52.7765C47.2482 50.5921 47.5956 48.5169 48.0176 47.0382C19.6952 50.859 11.0373 70.2748 10.2295 79.4835C9.63583 88.9102 11.1827 95.8118 14.0429 100.784C16.9005 105.752 21.0935 108.838 25.8779 110.595C35.3012 114.055 47.0028 112.348 55.1074 109.622L52.8623 102.437C48.6445 102.41 45.9352 101.919 44.2539 101.282C43.3887 100.955 42.774 100.58 42.3672 100.192C41.9648 99.8074 41.7314 99.3732 41.7314 98.9396V98.4767L42.1924 98.4416C51.9126 97.6938 60.0671 91.2339 63.3808 87.6398C59.1453 85.8453 55.6178 82.0082 54.3271 80.2335L53.4824 79.0724L54.8652 79.4582C66.9309 82.8207 78.188 80.8049 87.373 76.9044C96.5642 73.0014 103.655 67.2212 107.359 63.1056L108.231 62.1369V63.4396C108.231 64.5019 107.969 65.9254 107.655 67.2433C107.408 68.2799 107.122 69.277 106.888 70.0275C119.066 71.68 130.681 67.2589 135.713 64.4503C132.721 62.7537 130.843 61.0002 129.714 59.4455C128.499 57.772 128.133 56.2998 128.234 55.3849L128.324 54.5744L129.006 55.0216C135.267 59.1301 142.375 59.5909 148.757 58.4718C155.143 57.3519 160.754 54.6568 163.954 52.5236L165.317 51.6144L164.693 53.13C162.041 59.5707 157.705 63.2995 155.422 64.631L158.557 70.005C164.341 71.4817 170.305 70.1159 175.46 67.7482C180.643 65.3679 184.95 62.0018 187.338 59.6242C194.222 48.7776 194.164 38.9995 191.323 31.173C188.469 23.3094 182.795 17.3866 178.445 14.3498L178.434 14.3419L178.423 14.3341Z" fill="black"/>
<path d="M42.7312 190.94C41.7313 191.44 45.6239 172.989 58.231 182.94L58.2659 182.967C59.8188 184.193 65.5402 188.707 66.7311 197.44C66.2311 198.44 64.2311 193.94 60.2311 193.94C59.2311 193.94 57.2311 193.841 57.2311 198.94C57.2311 203.94 56.7228 200.677 60.2311 205.94C61.2311 207.44 55.5311 206.94 52.7311 198.94C52.3978 197.273 52.4311 193.04 55.2311 189.44C50.7312 179.935 43.731 190.44 42.7312 190.94Z" fill="black"/>
<path d="M107.231 222.44C113.398 235.273 133.731 258.24 165.731 247.44C165.231 241.106 159.531 228.24 140.731 227.44C141.731 230.94 143.431 238.14 142.231 238.94C140.731 239.94 132.731 212.94 107.231 222.44Z" fill="white"/>
<path d="M216.731 158.44C216.398 145.94 211.831 120.74 196.231 119.94C192.898 119.773 186.431 123.44 187.231 139.44C190.231 135.606 197.431 131.74 202.231 146.94L194.731 154.94L204.731 155.44C205.231 155.106 206.131 156.14 205.731 162.94L216.731 158.44Z" fill="white"/>
<path d="M129.731 118.44C123.398 120.94 112.631 134.04 120.231 166.44C123.064 176.44 133.735 193.539 151.731 189.94C159.231 188.44 168.731 178.84 162.731 148.44C159.898 136.106 149.331 112.84 129.731 118.44Z" fill="black"/>
<path d="M107.056 221.971C113.517 219.565 118.905 219.458 123.378 220.669C127.845 221.877 131.356 224.388 134.087 227.151C136.816 229.912 138.778 232.936 140.143 235.188C140.834 236.328 141.354 237.239 141.76 237.853C141.876 238.029 141.975 238.166 142.057 238.27C142.06 238.262 142.063 238.254 142.065 238.245C142.118 238.02 142.146 237.704 142.143 237.301C142.137 236.499 142.012 235.446 141.813 234.287C141.417 231.973 140.748 229.317 140.251 227.578L140.06 226.911L140.753 226.94C150.275 227.345 156.526 230.813 160.459 235.024C164.379 239.221 165.971 244.13 166.229 247.401L166.261 247.789L165.891 247.914C149.74 253.365 136.503 250.295 126.534 244.229C116.584 238.175 109.898 229.145 106.78 222.657L106.543 222.163L107.056 221.971ZM123.116 221.633C118.987 220.516 113.981 220.561 107.926 222.718C111.072 229.023 117.547 237.591 127.054 243.376C136.715 249.254 149.517 252.265 165.193 247.09C164.859 244.029 163.327 239.559 159.728 235.707C156.08 231.801 150.287 228.504 141.4 227.975C141.874 229.705 142.443 232.04 142.799 234.118C143 235.295 143.137 236.411 143.143 237.294C143.147 237.733 143.118 238.139 143.039 238.475C142.973 238.753 142.854 239.061 142.617 239.272L142.509 239.356C142.306 239.491 142.082 239.489 141.902 239.424C141.746 239.368 141.62 239.266 141.526 239.176C141.335 238.994 141.133 238.718 140.926 238.404C140.507 237.77 139.956 236.809 139.288 235.707C137.935 233.475 136.021 230.531 133.376 227.854C130.732 225.179 127.368 222.784 123.116 221.633ZM56.7312 198.94C56.7312 196.354 57.2325 194.928 58.0057 194.17C58.7948 193.397 59.7541 193.44 60.2312 193.44C62.4287 193.44 64.0496 194.678 65.1365 195.701C65.4098 195.958 65.6542 196.207 65.865 196.42C65.9502 196.507 66.0298 196.586 66.1023 196.658C64.8807 189.714 60.7329 185.666 58.7039 183.964L57.9559 183.36L57.9217 183.333C54.8349 180.896 52.3639 180.262 50.4256 180.556C48.4822 180.852 46.9492 182.1 45.782 183.692C44.6154 185.283 43.8505 187.172 43.4402 188.636C43.3139 189.087 43.2253 189.491 43.1668 189.827C43.4299 189.542 43.7545 189.186 44.1121 188.812C44.9866 187.898 46.1322 186.797 47.407 186.012C48.6766 185.231 50.1511 184.717 51.6473 185.111C53.1523 185.508 54.5264 186.782 55.6834 189.226L55.8143 189.504L55.6258 189.747C52.9535 193.182 52.9098 197.227 53.2156 198.811C54.5815 202.69 56.6273 204.701 58.1531 205.568C58.8628 205.971 59.4235 206.106 59.741 206.108C58.9134 204.875 58.3232 204.138 57.9051 203.658C57.6884 203.409 57.5179 203.227 57.3728 203.07C57.2338 202.919 57.1024 202.773 56.9998 202.619C56.7626 202.263 56.7144 201.918 56.7068 201.411C56.6998 200.94 56.7312 200.148 56.7312 198.94ZM130.063 117.83C139.893 115.228 147.47 119.752 152.906 126.398C158.244 132.924 161.578 141.556 163.079 147.738L163.219 148.328L163.221 148.336L163.221 148.343C166.231 163.592 165.37 173.7 162.758 180.213C160.219 186.542 156.028 189.46 152.199 190.35L151.829 190.43C142.634 192.269 135.307 188.81 129.948 183.65C124.602 178.503 121.186 171.645 119.75 166.576L119.744 166.554C112.123 134.064 122.864 120.614 129.548 117.975L129.57 117.965L129.594 117.96L130.063 117.83ZM152.132 127.032C146.767 120.473 139.424 116.202 129.894 118.913C123.908 121.295 113.15 134.049 120.715 166.314C122.113 171.244 125.449 177.93 130.642 182.929C135.826 187.919 142.833 191.21 151.633 189.45L151.97 189.377C155.462 188.565 159.404 185.888 161.83 179.841C164.341 173.581 165.231 163.695 162.244 148.551L161.958 147.374C160.414 141.338 157.177 133.2 152.132 127.032ZM196.257 119.441L196.635 119.464C204.529 120.068 209.571 126.741 212.672 134.62C215.833 142.653 217.064 152.139 217.231 158.426L217.24 158.772L205.185 163.704L205.232 162.911C205.432 159.521 205.303 157.62 205.081 156.624C205 156.258 204.912 156.053 204.85 155.946L204.706 155.939L193.628 155.385L201.664 146.812C199.291 139.46 196.419 136.945 193.975 136.545C191.477 136.137 189.089 137.877 187.625 139.748L186.799 140.803L186.732 139.464C186.329 131.405 187.751 126.368 189.765 123.35C191.785 120.325 194.394 119.348 196.257 119.441ZM196.206 120.439C194.735 120.366 192.444 121.139 190.597 123.905C188.844 126.531 187.485 130.969 187.682 138.171C189.27 136.551 191.584 135.142 194.137 135.559C197.212 136.063 200.298 139.157 202.708 146.79L202.796 147.068L195.834 154.494L204.638 154.934C204.746 154.895 204.868 154.874 205.001 154.892C205.213 154.921 205.387 155.033 205.517 155.17C205.762 155.428 205.933 155.85 206.056 156.406C206.289 157.452 206.408 159.243 206.269 162.179L216.219 158.109C216.018 151.898 214.79 142.733 211.741 134.986C208.673 127.188 203.847 121.019 196.554 120.461L196.206 120.439ZM57.7312 198.94C57.7312 200.232 57.6996 200.907 57.7068 201.395C57.7136 201.847 57.7576 201.953 57.8318 202.064C57.885 202.144 57.9642 202.236 58.1082 202.392C58.2461 202.542 58.4312 202.738 58.66 203.001C59.1209 203.53 59.7595 204.331 60.6473 205.663L60.7078 205.763C60.8437 206.01 60.9232 206.335 60.7439 206.647C60.5555 206.975 60.1947 207.077 59.9197 207.102C59.339 207.154 58.5269 206.93 57.659 206.437C55.8896 205.432 53.6936 203.202 52.2596 199.105L52.2478 199.072L52.241 199.038C51.8946 197.305 51.9255 193.07 54.6463 189.385C53.5898 187.27 52.4527 186.357 51.3924 186.078C50.2795 185.784 49.0981 186.145 47.9305 186.864C46.768 187.58 45.6946 188.605 44.8348 189.503C44.4023 189.956 44.0418 190.356 43.7361 190.683C43.5872 190.842 43.4503 190.985 43.3318 191.098C43.2264 191.198 43.0919 191.319 42.9549 191.387C42.8792 191.425 42.7702 191.46 42.6404 191.448C42.5047 191.435 42.3928 191.374 42.3123 191.299C42.175 191.172 42.1312 191.009 42.1141 190.931C42.0739 190.75 42.076 190.52 42.0945 190.292C42.1333 189.812 42.2613 189.138 42.4773 188.367C42.9097 186.823 43.7181 184.815 44.9754 183.1C46.2322 181.386 47.9743 179.918 50.2752 179.568C52.4369 179.239 54.9832 179.914 57.9432 182.091L58.5408 182.547L58.576 182.575L58.9187 182.847C60.8642 184.411 66.084 188.995 67.2264 197.373L67.2478 197.525L67.1785 197.664C67.1174 197.786 67.0151 197.924 66.8465 198.01C66.671 198.1 66.4934 198.097 66.3523 198.062C66.1114 198.002 65.895 197.83 65.7371 197.691C65.5607 197.536 65.3612 197.334 65.1531 197.123C64.9404 196.907 64.7085 196.672 64.451 196.429C63.4129 195.452 62.0337 194.44 60.2312 194.44C59.7084 194.44 59.1667 194.434 58.7059 194.885C58.2292 195.353 57.7312 196.428 57.7312 198.94Z" fill="black"/>
<path d="M132.731 123.44C123.531 124.24 121.898 138.44 122.231 145.44C130.231 134.24 138.231 146.44 141.231 153.94L132.731 161.44L143.231 163.44C147.631 167.44 141.231 186.44 143.231 186.44C145.231 186.44 146.231 186.969 150.731 186.44C159.231 185.44 161.064 163.106 159.231 153.94C152.431 126.34 138.731 122.106 132.731 123.44Z" fill="white"/>
<path d="M132.658 122.945C138.97 121.57 152.471 126.018 159.392 152.538L159.717 153.82L159.719 153.831L159.722 153.842C160.653 158.5 160.649 166.441 159.348 173.345C158.697 176.798 157.715 180.03 156.339 182.474C154.968 184.91 153.147 186.659 150.789 186.936C146.273 187.468 145.087 186.94 143.232 186.94C143.062 186.94 142.899 186.887 142.762 186.781C142.633 186.681 142.55 186.552 142.495 186.433C142.391 186.205 142.351 185.921 142.338 185.639C142.311 185.062 142.386 184.265 142.511 183.342C142.76 181.503 143.243 178.952 143.637 176.364C144.036 173.744 144.355 171.029 144.306 168.731C144.281 167.583 144.166 166.557 143.931 165.71C143.712 164.919 143.396 164.316 142.987 163.902L131.635 161.74L140.633 153.801C139.118 150.125 136.474 145.506 133.302 143.074C131.679 141.83 129.972 141.197 128.234 141.481C126.492 141.766 124.595 142.991 122.638 145.73L121.8 146.903L121.732 145.464C121.563 141.924 121.889 136.558 123.432 131.956C124.965 127.382 127.77 123.385 132.658 122.945ZM158.741 154.047C151.968 126.569 138.442 122.682 132.839 123.928L132.807 123.935L132.775 123.938C128.481 124.312 125.877 127.806 124.38 132.273C123.078 136.159 122.666 140.645 122.692 144.024C124.461 141.903 126.267 140.79 128.072 140.495C130.177 140.151 132.158 140.937 133.91 142.28C137.393 144.951 140.185 149.978 141.695 153.754L141.826 154.082L141.562 154.314L133.825 161.139L143.463 162.975L143.567 163.07C144.212 163.656 144.63 164.489 144.895 165.443C145.16 166.4 145.28 167.516 145.306 168.711C145.357 171.1 145.026 173.886 144.625 176.515C144.219 179.177 143.752 181.627 143.501 183.475C143.376 184.396 143.314 185.114 143.337 185.592C143.345 185.758 143.363 185.871 143.381 185.942C145.416 185.966 146.296 186.458 150.673 185.943C152.565 185.72 154.161 184.303 155.467 181.983C156.768 179.673 157.723 176.561 158.364 173.16C159.646 166.36 159.641 158.556 158.741 154.047Z" fill="black"/>
<path d="M56.9177 285.063C54.761 283.619 53.1796 281.901 52.1737 279.91C51.178 277.926 50.795 275.812 51.0247 273.567C51.2646 271.33 52.1442 269.076 53.6635 266.807L54.1666 266.056C55.6175 263.889 57.3284 262.251 59.2992 261.143C61.27 260.034 63.347 259.53 65.5304 259.63C67.7308 259.727 69.9093 260.497 72.0661 261.941C73.5789 262.954 74.8509 264.117 75.882 265.429C76.9234 266.748 77.6711 268.196 78.1251 269.773L74.5115 275.17L71.1844 272.942L72.9932 269.246C72.8065 268.751 72.5788 268.295 72.3101 267.878C71.7422 266.98 70.9266 266.174 69.8636 265.463C68.5859 264.607 67.2885 264.19 65.9716 264.211C63.2353 264.23 60.7995 265.834 58.6642 269.023L58.1406 269.805C57.1072 271.348 56.4559 272.874 56.1868 274.381C55.9313 275.868 56.0616 277.243 56.5777 278.507C57.1006 279.76 58.006 280.818 59.294 281.68C59.9379 282.111 60.6298 282.471 61.3696 282.759C62.1264 283.043 62.8493 283.246 63.5382 283.367L66.1027 280.532L69.4299 282.76L65.8573 288.095C64.6052 288.086 63.1966 287.846 61.6316 287.375C60.0734 286.895 58.5021 286.124 56.9177 285.063Z" fill="black"/>
<path d="M81.9294 285.862L79.1062 292.681L81.5541 294.294L80.319 297.277L70.0386 293.021L71.2737 290.038L74.128 290.62L81.5035 272.804L79.0726 271.199L80.3148 268.198L90.5952 272.454L89.353 275.455L86.4817 274.865L83.5174 282.026L93.6444 286.218L96.6087 279.058L94.1608 277.445L95.403 274.445L105.683 278.701L104.441 281.701L101.57 281.112L94.1944 298.928L96.6423 300.54L95.4071 303.524L85.1267 299.268L86.3619 296.284L89.2332 296.874L92.0563 290.054L81.9294 285.862Z" fill="black"/>
<path d="M118.782 304.311L119.64 301.208L123.659 302.002L122.236 309.206L101.382 305.088L102.007 301.92L104.921 301.931L108.657 283.014L105.958 281.917L106.588 278.731L127.043 282.771L125.638 289.885L121.583 289.084L121.948 285.997L113.875 284.402L112.566 291.027L121.491 292.79L120.686 296.863L111.762 295.1L110.274 302.631L118.782 304.311Z" fill="black"/>
<path d="M137.498 298.978L137.369 306.357L140.237 306.961L140.181 310.19L129.056 309.995L129.113 306.767L131.982 306.263L132.319 286.984L129.469 286.38L129.526 283.133L150.909 283.508L150.78 290.869L146.647 290.796L146.464 287.582L137.7 287.429L137.571 294.827L146.98 294.991L146.907 299.142L137.498 298.978Z" fill="black"/>
<path d="M167.265 308.631C165.309 308.942 163.494 309.006 161.821 308.823C160.148 308.64 158.448 308.132 156.721 307.298L155.703 300.883L159.821 300.229L160.985 303.911C161.605 304.286 162.418 304.543 163.424 304.682C164.428 304.809 165.495 304.783 166.625 304.604C167.597 304.449 168.39 304.186 169.004 303.815C170.265 303.054 170.787 301.987 170.569 300.614C170.467 299.97 170.225 299.43 169.844 298.992C169.099 298.139 167.489 297.535 165.017 297.18C162.766 296.89 160.921 296.486 159.481 295.967C157.98 295.458 156.802 294.748 155.948 293.838C155.103 292.913 154.566 291.728 154.337 290.282C154.109 288.849 154.308 287.515 154.935 286.282C155.551 285.064 156.513 284.026 157.822 283.171C159.131 282.315 160.707 281.729 162.55 281.411C164.587 281.063 166.43 281.019 168.078 281.281C169.738 281.54 171.212 282.035 172.499 282.764L173.448 288.742L169.457 289.376L168.186 285.841C167.678 285.623 167.011 285.467 166.187 285.374C165.375 285.278 164.47 285.31 163.474 285.468C162.624 285.603 161.897 285.849 161.293 286.207C160.678 286.566 160.22 287.019 159.921 287.564C159.622 288.11 159.527 288.729 159.637 289.422C159.731 290.017 159.977 290.507 160.375 290.893C161.114 291.622 162.863 292.21 165.625 292.656C168.682 293.005 171.07 293.728 172.788 294.825C174.519 295.92 175.557 297.555 175.903 299.73C176.144 301.248 175.943 302.613 175.301 303.824C174.663 305.058 173.656 306.09 172.28 306.919C170.905 307.748 169.233 308.318 167.265 308.631Z" fill="black"/>
<path d="M184.307 280.442L190.005 298.863L192.901 298.547L193.855 301.631L183.243 304.914L182.289 301.829L184.858 300.455L179.159 282.034L176.264 282.351L175.304 279.248L185.916 275.965L186.875 279.068L184.307 280.442Z" fill="black"/>
<path d="M198.33 280.114L204.867 293.225L208.202 292.181L209.643 295.071L199.685 300.036L198.244 297.146L200.557 295.374L191.953 278.118L189.147 278.899L187.698 275.992L195.145 272.279L213.93 283.738L214.021 283.672L207.41 270.412L204.091 271.448L202.642 268.541L212.6 263.577L214.049 266.483L211.72 268.263L222.011 288.905L217.354 291.226L198.421 280.048L198.33 280.114Z" fill="black"/>
<path d="M222.416 260.505L233.698 276.143L236.342 274.918L238.231 277.537L229.223 284.036L227.333 281.417L229.329 279.295L218.047 263.658L215.404 264.882L213.504 262.249L222.512 255.749L224.412 258.383L222.416 260.505Z" fill="black"/>
</svg>
